<?xml version="1.0" standalone="no"?>
<!DOCTYPE svg PUBLIC "-//W3C//DTD SVG 20010904//EN"
 "http://www.w3.org/TR/2001/REC-SVG-20010904/DTD/svg10.dtd">
<svg version="1.0" xmlns="http://www.w3.org/2000/svg"
 width="400.000000pt" height="400.000000pt" viewBox="0 0 400.000000 400.000000"
 preserveAspectRatio="xMidYMid meet">
<metadata>
Created by potrace 1.11, written by Peter Selinger 2001-2013
</metadata>
<g transform="translate(0.000000,400.000000) scale(0.100000,-0.100000)"
fill="#000000" stroke="none">
<path d="M1889 3964 c-6 -8 -9 -307 -7 -877 l3 -866 -43 -36 c-110 -94 -110
-258 1 -350 l44 -37 1 -356 c0 -197 1 -590 2 -875 1 -451 3 -519 16 -524 25
-9 166 -9 172 1 3 5 5 403 5 885 l0 876 38 27 c85 60 111 197 56 291 -16 26
-43 57 -61 69 l-33 22 0 873 c0 480 -3 876 -7 880 -12 12 -176 10 -187 -3z"/>
<path d="M2923 2779 c-155 -27 -287 -150 -328 -309 -13 -52 -10 -168 6 -220
42 -137 110 -199 359 -327 162 -83 205 -110 248 -154 47 -47 64 -84 67 -143 8
-129 -84 -207 -245 -209 -106 -2 -186 36 -231 110 -13 21 -29 33 -42 33 -30 0
-186 -77 -193 -94 -14 -37 65 -141 149 -196 223 -146 585 -95 720 102 56 82
70 129 70 243 1 125 -18 193 -79 275 -58 79 -146 142 -326 236 -209 108 -268
166 -268 263 0 216 301 284 423 95 12 -19 30 -37 40 -40 15 -5 146 47 170 67
13 11 -54 108 -110 161 -28 25 -69 56 -91 67 -85 43 -225 60 -339 40z"/>
<path d="M490 2726 c-11 -11 -14 -155 -4 -180 5 -14 29 -16 159 -16 96 0 156
-4 160 -10 4 -6 6 -306 6 -667 0 -447 3 -661 10 -669 11 -13 174 -19 204 -8
13 5 15 94 15 674 0 372 4 671 9 674 5 3 77 6 160 7 131 0 152 3 159 17 11 21
9 168 -1 179 -12 12 -866 10 -877 -1z"/>
</g>
</svg>
