<?xml version="1.0" encoding="utf-8"?>
<!-- Generator: Adobe Illustrator 22.0.1, SVG Export Plug-In . SVG Version: 6.00 Build 0)  -->
<svg version="1.1" id="Слой_1" xmlns="http://www.w3.org/2000/svg" xmlns:xlink="http://www.w3.org/1999/xlink" x="0px" y="0px"
	 viewBox="0 0 119 117" style="enable-background:new 0 0 119 117;" xml:space="preserve">
<style type="text/css">
	.st0{display:none;fill:#224C0A;}
	.st1{fill:#FFFFFF;}
	.st2{display:none;}
	.st3{display:inline;fill:#FFFFFF;}
</style>
<rect x="-82.5" y="-59" class="st0" width="260" height="194"/>
<g>
	<path class="st1" d="M59,2c31.2,0,56.5,25.3,56.5,56.5S90.2,115,59,115S2.5,89.7,2.5,58.5S27.8,2,59,2 M59,0
		C26.7,0,0.5,26.2,0.5,58.5S26.7,117,59,117s58.5-26.2,58.5-58.5S91.3,0,59,0L59,0z"/>
</g>
<g class="st2">
	<path class="st3" d="M34.7,31.6c0,2-0.9,3.6-2.7,4.7v54c0,0.4-0.1,0.7-0.4,1c-0.3,0.3-0.6,0.4-1,0.4h-2.7c-0.4,0-0.7-0.1-1-0.4
		c-0.3-0.3-0.4-0.6-0.4-1v-54c-1.8-1.1-2.7-2.6-2.7-4.7c0-1.5,0.5-2.8,1.6-3.9c1.1-1.1,2.4-1.6,3.9-1.6c1.5,0,2.8,0.5,3.9,1.6
		C34.2,28.8,34.7,30.1,34.7,31.6z M97.5,34.3v32.5c0,0.7-0.2,1.3-0.5,1.6c-0.4,0.4-0.9,0.8-1.7,1.2c-6.1,3.3-11.4,4.9-15.7,4.9
		c-1.7,0-3.5-0.3-5.3-0.9c-1.8-0.6-3.3-1.3-4.6-2c-1.3-0.7-2.9-1.4-4.9-2c-2-0.6-4-0.9-6.1-0.9c-5.5,0-12.1,2.1-19.8,6.2
		c-0.5,0.3-1,0.4-1.4,0.4c-0.7,0-1.4-0.3-1.9-0.8c-0.5-0.5-0.8-1.2-0.8-1.9V40.9c0-0.9,0.4-1.7,1.3-2.3c0.6-0.4,1.7-1,3.4-1.8
		c6.7-3.4,12.7-5.1,18-5.1c3,0,5.9,0.4,8.5,1.2s5.8,2.1,9.3,3.8c1.1,0.5,2.3,0.8,3.8,0.8c1.5,0,3.2-0.3,5-0.9c1.8-0.6,3.4-1.3,4.7-2
		c1.3-0.7,2.6-1.4,3.8-2c1.2-0.6,2-0.9,2.3-0.9c0.7,0,1.4,0.3,1.9,0.8C97.2,33,97.5,33.6,97.5,34.3z"/>
</g>
<g>
	<path class="st1" d="M92.8,51.1c0,0.6-0.3,1.2-1,1.9L77.2,67.3l3.5,20.1c0,0.2,0,0.5,0,0.8c0,0.6-0.1,1-0.4,1.4s-0.7,0.6-1.2,0.6
		c-0.5,0-1-0.2-1.6-0.5l-18-9.5l-18,9.5c-0.6,0.3-1.1,0.5-1.6,0.5c-0.6,0-1-0.2-1.3-0.6S38,88.7,38,88.2c0-0.2,0-0.4,0.1-0.8
		l3.5-20.1L27,53.1c-0.7-0.7-1-1.4-1-1.9c0-1,0.7-1.6,2.3-1.8l20.2-2.9l9-18.3c0.5-1.1,1.2-1.6,2-1.6c0.8,0,1.5,0.5,2,1.6l9,18.3
		l20.2,2.9C92.1,49.5,92.8,50.2,92.8,51.1z"/>
</g>
</svg>
