<?xml version="1.0" encoding="utf-8"?>
<!-- Generator: Adobe Illustrator 22.0.1, SVG Export Plug-In . SVG Version: 6.00 Build 0)  -->
<svg version="1.1" id="Слой_1" xmlns="http://www.w3.org/2000/svg" xmlns:xlink="http://www.w3.org/1999/xlink" x="0px" y="0px"
	 viewBox="0 0 30 30" style="enable-background:new 0 0 30 30;" xml:space="preserve">
<style type="text/css">
	.st0{fill:#141515;}
</style>
<path class="st0" d="M10.3,10.8c0,0.1-0.1,0.2-0.2,0.2H8c-0.1,0-0.2,0.1-0.2,0.2V21c0,0.1-0.1,0.2-0.2,0.2H6.3
	c-0.1,0-0.2-0.1-0.2-0.2v-9.8C6.1,11.1,6,11,5.9,11H3.8c-0.1,0-0.2-0.1-0.2-0.2V9.7c0-0.1,0.1-0.2,0.2-0.2h6.3
	c0.1,0,0.2,0.1,0.2,0.2V10.8z"/>
<path class="st0" d="M26.3,17.9c0,1-0.4,1.8-1.1,2.4c-0.7,0.5-1.5,0.8-2.6,0.8c-1.4,0-2.8-0.6-3.4-2c0-0.1,0-0.1,0.1-0.2l1.3-0.6
	c0.1,0,0.1,0,0.2,0c0.1,0.1,0.1,0.2,0.2,0.3c0.4,0.6,1,0.8,1.7,0.8c1,0,1.9-0.4,1.9-1.5c0-1.2-1.2-1.7-2.1-2.2
	c-1.1-0.5-1.9-1-2.3-1.4c-0.5-0.5-0.8-1.2-0.8-2.1c0-1,0.4-1.7,1-2.3c0.7-0.6,1.4-0.8,2.4-0.8c1.5,0,2.5,0.7,3.2,2
	c0,0.1,0,0.1-0.1,0.1l-1.1,0.5c0,0,0,0-0.1,0c0,0-0.1-0.1-0.2-0.2c-0.4-0.7-1.1-1-1.6-1c-0.9,0-1.7,0.6-1.7,1.6s1.1,1.5,1.9,1.9
	C24.9,14.9,26.3,15.7,26.3,17.9"/>
<path class="st0" d="M14.1,0.6c0-0.3,0-0.4,0.3-0.4c0.1,0,0.8,0,0.9,0c0.3,0,0.3,0.1,0.3,0.5v28.8c0,0.3-0.1,0.2-0.3,0.2h-0.9
	c-0.2,0-0.2-0.1-0.2-0.2"/>
<path class="st0" d="M14.9,13.3c0.9,0,1.7,0.7,1.7,1.7c0,0.9-0.7,1.7-1.7,1.7c-0.9,0-1.7-0.7-1.7-1.7C13.2,14,13.9,13.3,14.9,13.3"
	/>
</svg>
