<?xml version="1.0" encoding="utf-8"?>
<!-- Generator: Adobe Illustrator 22.0.1, SVG Export Plug-In . SVG Version: 6.00 Build 0)  -->
<svg version="1.1" id="Слой_1" xmlns="http://www.w3.org/2000/svg" xmlns:xlink="http://www.w3.org/1999/xlink" x="0px" y="0px"
	 viewBox="0 0 59.9 20" style="enable-background:new 0 0 59.9 20;" xml:space="preserve">
<path d="M58.9,10l-25.8,0c-0.1,0-0.2-0.1-0.3-0.2C32.3,8.7,31.3,8,30.1,8c-1.2,0-2.3,0.7-2.7,1.8c0,0.1-0.2,0.2-0.3,0.2l-26,0
	c-0.6,0-1,0.4-1,1v0c0,0.6,0.4,1,1,1l26,0c0.1,0,0.2,0.1,0.3,0.2c0.5,1.1,1.5,1.8,2.7,1.8c1.2,0,2.3-0.7,2.7-1.8
	c0-0.1,0.2-0.2,0.3-0.2l25.8,0c0.6,0,1-0.4,1-1v0C59.9,10.4,59.4,10,58.9,10z"/>
</svg>
