<?xml version="1.0" encoding="utf-8"?>
<!-- Generator: Adobe Illustrator 22.0.1, SVG Export Plug-In . SVG Version: 6.00 Build 0)  -->
<svg version="1.1" id="Слой_1" xmlns="http://www.w3.org/2000/svg" xmlns:xlink="http://www.w3.org/1999/xlink" x="0px" y="0px"
	 viewBox="0 0 99.3 29.4" style="enable-background:new 0 0 99.3 29.4;" xml:space="preserve">
<style type="text/css">
	.st0{fill:#FFFFFF;}
</style>
<path class="st0" d="M6.7,10.5c0,0.1-0.1,0.2-0.2,0.2H4.4c-0.1,0-0.2,0.1-0.2,0.2v9.8c0,0.1-0.1,0.2-0.2,0.2H2.7
	c-0.1,0-0.2-0.1-0.2-0.2v-9.8c0-0.1-0.1-0.2-0.2-0.2H0.2c-0.1,0-0.2-0.1-0.2-0.2V9.4c0-0.1,0.1-0.2,0.2-0.2h6.3
	c0.1,0,0.2,0.1,0.2,0.2V10.5z"/>
<path class="st0" d="M22.7,17.6c0,1-0.4,1.8-1.1,2.4c-0.7,0.5-1.5,0.8-2.6,0.8c-1.4,0-2.8-0.6-3.4-2c0-0.1,0-0.1,0.1-0.2L17,18
	c0.1,0,0.1,0,0.2,0c0.1,0.1,0.1,0.2,0.2,0.3c0.4,0.6,1,0.8,1.7,0.8c1,0,1.9-0.4,1.9-1.5c0-1.2-1.2-1.7-2.1-2.2
	c-1.1-0.5-1.9-1-2.3-1.4c-0.5-0.5-0.8-1.2-0.8-2.1c0-1,0.4-1.7,1-2.3c0.7-0.6,1.4-0.8,2.4-0.8c1.5,0,2.5,0.7,3.2,2
	c0,0.1,0,0.1-0.1,0.1l-1.1,0.5c0,0,0,0-0.1,0c0,0-0.1-0.1-0.2-0.2c-0.4-0.7-1.1-1-1.6-1c-0.9,0-1.7,0.6-1.7,1.6s1.1,1.5,1.9,1.9
	C21.3,14.6,22.7,15.4,22.7,17.6"/>
<path class="st0" d="M10.5,0.3c0-0.3,0-0.4,0.3-0.4c0.1,0,0.8,0,0.9,0C12-0.1,12,0,12,0.4v28.8c0,0.3-0.1,0.2-0.3,0.2h-0.9
	c-0.2,0-0.2-0.1-0.2-0.2V0.3H10.5z"/>
<path class="st0" d="M11.2,13.1c0.9,0,1.6,0.7,1.6,1.6c0,0.9-0.7,1.6-1.6,1.6c-0.9,0-1.6-0.7-1.6-1.6C9.6,13.8,10.3,13.1,11.2,13.1"
	/>
<path class="st0" d="M55.3,12.5v-0.2c0-0.5-0.2-0.8-0.5-1.2c-0.3-0.3-0.7-0.5-1.2-0.5h-2c-0.1,0-0.2,0.1-0.2,0.2V14
	c0,0.1,0.1,0.2,0.2,0.2h2c0.5,0,0.9-0.2,1.2-0.5C55.1,13.3,55.3,12.9,55.3,12.5 M57,12.4c0,1-0.3,1.8-0.9,2.3
	c-0.6,0.6-1.4,0.9-2.4,0.9h-2c-0.1,0-0.2,0.1-0.2,0.2v4.8c0,0.1-0.1,0.2-0.2,0.2H50c-0.1,0-0.2-0.1-0.2-0.2V9.4
	c0-0.1,0.1-0.2,0.2-0.2h3.7c1,0,1.8,0.3,2.4,0.9C56.7,10.6,57,11.4,57,12.4z M46.2,17.7v-5.5c0-0.5-0.2-0.9-0.6-1.3
	c-0.4-0.4-0.9-0.5-1.4-0.5s-1,0.2-1.4,0.5c-0.4,0.4-0.6,0.8-0.6,1.3v5.5c0,0.5,0.2,0.9,0.6,1.3c0.4,0.4,0.9,0.5,1.4,0.5
	s1-0.2,1.4-0.5C46,18.6,46.2,18.2,46.2,17.7z M47.9,17.5c0,1.1-0.3,1.9-1,2.5s-1.6,0.9-2.6,0.9c-1.1,0-2-0.3-2.6-0.9
	c-0.7-0.6-1.1-1.5-1.1-2.6v-5.1c0-1.1,0.4-1.9,1.1-2.6c0.7-0.6,1.5-0.9,2.6-0.9s2,0.3,2.6,0.9c0.7,0.6,1,1.5,1,2.5V17.5z M40,10.5
	c0,0.1-0.1,0.2-0.2,0.2h-2.1c-0.1,0-0.2,0.1-0.2,0.2v9.8c0,0.1-0.1,0.2-0.2,0.2H36c-0.1,0-0.2-0.1-0.2-0.2v-9.8
	c0-0.1-0.1-0.2-0.2-0.2h-2.1c-0.1,0-0.2-0.1-0.2-0.2V9.4c0-0.1,0.1-0.2,0.2-0.2h6.3c0.1,0,0.2,0.1,0.2,0.2V10.5z"/>
<path class="st0" d="M99.5,10.5c0,0.1-0.1,0.2-0.2,0.2h-2.1c-0.1,0-0.2,0.1-0.2,0.2v9.8c0,0.1-0.1,0.2-0.2,0.2h-1.3
	c-0.1,0-0.2-0.1-0.2-0.2v-9.8c0-0.1-0.1-0.2-0.2-0.2H93c-0.1,0-0.2-0.1-0.2-0.2V9.4c0-0.1,0.1-0.2,0.2-0.2h6.3
	c0.1,0,0.2,0.1,0.2,0.2L99.5,10.5L99.5,10.5z M90.5,12.5v-0.2c0-0.5-0.2-0.8-0.6-1.2c-0.4-0.3-0.8-0.5-1.3-0.5h-2
	c-0.1,0-0.2,0.1-0.2,0.2V14c0,0.1,0.1,0.2,0.2,0.2h2.2c0.5,0,0.9-0.2,1.2-0.5C90.4,13.3,90.5,12.9,90.5,12.5z M92.3,20.6
	c0,0.1-0.1,0.1-0.2,0.1h-1.5c-0.1,0-0.1,0-0.2-0.1l-1.7-4.9l-0.1-0.1h-2c-0.1,0-0.2,0.1-0.2,0.2v4.8c0,0.1-0.1,0.2-0.2,0.2H85
	c-0.1,0-0.2-0.1-0.2-0.2V9.4c0-0.1,0.1-0.2,0.2-0.2h3.7c1,0,1.9,0.3,2.5,0.9c0.7,0.6,1,1.4,1,2.4v0.2c0,0.8-0.3,1.4-1,2
	c-0.1,0.1-0.3,0.2-0.5,0.4c-0.2,0.1-0.3,0.2-0.2,0.3l0,0L92.3,20.6L92.3,20.6z M81.3,17.7v-5.5c0-0.5-0.2-0.9-0.6-1.3
	c-0.4-0.4-0.9-0.5-1.4-0.5s-1,0.2-1.4,0.5c-0.4,0.4-0.6,0.8-0.6,1.3v5.5c0,0.5,0.2,0.9,0.6,1.3s0.9,0.5,1.4,0.5s1-0.2,1.4-0.5
	C81.1,18.6,81.3,18.2,81.3,17.7z M83,17.5c0,1.1-0.3,1.9-1,2.5s-1.6,0.9-2.6,0.9c-1.1,0-2-0.3-2.6-0.9c-0.7-0.6-1.1-1.5-1.1-2.6
	v-5.1c0-1.1,0.4-1.9,1.1-2.6c0.7-0.6,1.5-0.9,2.6-0.9s2,0.3,2.6,0.9c0.7,0.6,1,1.5,1,2.5V17.5z M72.7,12.5v-0.2
	c0-0.5-0.2-0.8-0.5-1.2c-0.3-0.3-0.7-0.5-1.2-0.5h-2c-0.1,0-0.2,0.1-0.2,0.2V14c0,0.1,0.1,0.2,0.2,0.2h2c0.5,0,0.9-0.2,1.2-0.5
	C72.6,13.3,72.7,12.9,72.7,12.5z M74.4,12.4c0,1-0.3,1.8-0.9,2.3c-0.6,0.6-1.4,0.9-2.4,0.9h-2c-0.1,0-0.2,0.1-0.2,0.2v4.8
	c0,0.1-0.1,0.2-0.2,0.2h-1.3c-0.1,0-0.2-0.1-0.2-0.2V9.4c0-0.1,0.1-0.2,0.2-0.2h3.7c1,0,1.8,0.3,2.4,0.9
	C74.1,10.6,74.4,11.4,74.4,12.4z M65.4,17.8c0,1-0.4,1.8-1.1,2.4c-0.7,0.5-1.5,0.8-2.5,0.8c-0.6,0-1.3-0.2-2-0.5
	c-0.9-0.4-1.3-0.9-1.3-1.5c0-0.1,0-0.1,0.1-0.1l1.2-0.6c0,0,0,0,0.1,0c0,0,0.1,0.1,0.3,0.3c0.4,0.6,1,0.9,1.7,0.9
	c0.5,0,0.9-0.2,1.3-0.5c0.4-0.3,0.6-0.7,0.6-1.2s-0.2-0.9-0.6-1.2c-0.3-0.2-0.8-0.6-1.6-0.9c-1.1-0.5-1.9-1-2.3-1.4
	c-0.5-0.5-0.8-1.2-0.8-2.1c0-1,0.3-1.7,1-2.3C60.2,9.3,61,9,62,9c0.7,0,1.3,0.2,2,0.6c0.2,0.1,0.5,0.4,0.7,0.6
	c0.3,0.3,0.4,0.6,0.4,0.8c0,0.1,0,0.1-0.1,0.1l-1.1,0.5c0,0,0,0-0.1,0c0,0-0.1-0.1-0.2-0.2c-0.4-0.7-1-1-1.5-1s-0.9,0.2-1.3,0.5
	c-0.4,0.3-0.6,0.7-0.6,1.2c0,0.4,0.2,0.7,0.5,1c0.2,0.2,0.7,0.5,1.5,0.8c1.1,0.5,1.9,1,2.3,1.4C65.1,16,65.4,16.8,65.4,17.8z"/>
<path class="st0" d="M98.3,24C98.3,23.9,98.3,23.9,98.3,24l0.6-0.1c0,0,0.1,0,0.1,0.1v0.6l0.1,0.1h0.5c0.1,0,0.1,0,0.1,0.1v0.4
	c0,0,0,0.1-0.1,0.1H99c0,0-0.1,0-0.1,0.1v1.4c0,0.2,0.1,0.4,0.3,0.5c0,0,0.1,0.1,0.3,0.1l0,0v0.4c0,0.1,0,0.1-0.1,0.1
	c-0.3,0-0.6-0.1-0.8-0.3c-0.2-0.2-0.3-0.5-0.3-0.8v-1.4c0,0,0-0.1-0.1-0.1H98c0,0-0.1,0-0.1-0.1v-0.4c0,0,0-0.1,0.1-0.1h0.2
	c0,0,0.1,0,0.1-0.1C98.3,24.6,98.3,24,98.3,24z M97.4,27.7L97.4,27.7l-0.6,0.1c0,0-0.1,0-0.1-0.1v-1.9c0-0.2-0.1-0.3-0.2-0.4
	s-0.3-0.2-0.4-0.2c-0.2,0-0.3,0.1-0.4,0.2s-0.2,0.3-0.2,0.4v1.9c0,0,0,0.1-0.1,0.1H95c0,0-0.1,0-0.1-0.1v-3c0,0,0-0.1,0.1-0.1h0.4
	h0.1v0.2v0.1c0,0,0.1,0,0.2-0.1c0.2-0.1,0.3-0.2,0.5-0.2c0.3,0,0.6,0.1,0.9,0.3c0.2,0.2,0.3,0.5,0.3,0.8V27.7z M93.6,25.7
	c0-0.2-0.1-0.3-0.2-0.4s-0.3-0.2-0.4-0.2c-0.2,0-0.3,0.1-0.4,0.2s-0.2,0.2-0.2,0.4c0,0.1,0,0.1,0.1,0.1h1.1
	C93.6,25.8,93.6,25.8,93.6,25.7L93.6,25.7z M91.8,26.6v-0.9c0-0.2,0.1-0.5,0.3-0.7c0.3-0.3,0.6-0.5,1-0.5c0.5,0,0.8,0.2,1.1,0.6
	c0.1,0.2,0.2,0.4,0.2,0.6v0.5c0,0,0,0.1-0.1,0.1h-1.7c-0.1,0-0.1,0-0.1,0.1v0.3c0,0.2,0.1,0.3,0.2,0.4s0.3,0.2,0.4,0.2
	c0.2,0,0.4-0.1,0.5-0.2s0.2-0.2,0.2-0.2l0,0l0.4,0.2c0,0,0,0,0,0.1c0,0.2-0.1,0.4-0.4,0.5c-0.2,0.1-0.5,0.2-0.7,0.2
	c-0.4,0-0.7-0.1-0.9-0.3C91.9,27.3,91.8,27,91.8,26.6z M88.4,25.2L88.4,25.2c-0.2,0-0.3,0.1-0.4,0.2s-0.2,0.3-0.2,0.4v1.9
	c0,0,0,0.1-0.1,0.1h-0.5c-0.1,0-0.1,0-0.1-0.1v-1.9c0-0.3,0.1-0.6,0.3-0.8c0.2-0.2,0.5-0.3,0.8-0.3s0.6,0.1,0.8,0.3l0.1,0.1
	c0,0,0.1-0.1,0.2-0.1c0.2-0.1,0.4-0.2,0.7-0.2c0.3,0,0.6,0.1,0.8,0.3c0.2,0.2,0.3,0.5,0.3,0.8v1.9c0,0,0,0.1-0.1,0.1h-0.5
	c0,0-0.1,0-0.1-0.1v-1.9c0-0.2-0.1-0.3-0.2-0.4s-0.2-0.2-0.4-0.2c-0.1,0-0.3,0.1-0.4,0.2s-0.2,0.3-0.2,0.4v1.9c0,0,0,0.1-0.1,0.1H89
	c0,0-0.1,0-0.1-0.1v-1.9c0-0.2-0.1-0.3-0.2-0.4C88.7,25.3,88.5,25.2,88.4,25.2z M85.9,26.6v-0.8c0-0.2-0.1-0.3-0.2-0.4
	s-0.3-0.2-0.4-0.2c-0.2,0-0.3,0.1-0.4,0.2s-0.2,0.3-0.2,0.4v0.8c0,0.2,0.1,0.3,0.2,0.4s0.3,0.2,0.4,0.2c0.2,0,0.3-0.1,0.4-0.2
	C85.9,26.9,85.9,26.8,85.9,26.6z M86.6,26.6c0,0.3-0.1,0.6-0.3,0.8c-0.2,0.2-0.5,0.3-0.8,0.3c-0.1,0-0.3,0-0.4-0.1
	c-0.2-0.1-0.2-0.1-0.2-0.1s0,0,0,0.1v1.3c0,0,0,0.1-0.1,0.1h-0.5c0,0-0.1,0-0.1-0.1v-4.2c0,0,0-0.1,0.1-0.1h0.4c0,0,0.1,0,0.1,0.1
	v0.1c0,0.1,0,0.1,0.1,0.1c0,0,0.1,0,0.2-0.1c0.2-0.1,0.3-0.2,0.5-0.2c0.3,0,0.6,0.1,0.9,0.3c0.2,0.2,0.3,0.5,0.3,0.8v0.9H86.6z
	 M83.3,27.7C83.3,27.7,83.2,27.7,83.3,27.7l-0.6,0.1c0,0-0.1,0-0.1-0.1v-3c0,0,0-0.1,0.1-0.1h0.5c0,0,0.1,0,0.1,0.1V27.7z
	 M82.9,23.3c0.1,0,0.2,0,0.3,0.1c0.1,0.1,0.1,0.2,0.1,0.3c0,0.1,0,0.2-0.1,0.3c-0.1,0.1-0.2,0.1-0.3,0.1c-0.1,0-0.2,0-0.3-0.1
	c-0.1-0.1-0.1-0.2-0.1-0.3c0-0.1,0-0.2,0.1-0.3C82.8,23.4,82.8,23.3,82.9,23.3z M81.8,27.7C81.8,27.7,81.7,27.7,81.8,27.7l-0.5,0.1
	c0,0-0.1,0-0.1-0.1s0-0.2,0-0.2l0,0c0,0-0.1,0-0.2,0.1c-0.2,0.1-0.3,0.1-0.5,0.1c-0.3,0-0.6-0.1-0.8-0.3c-0.2-0.2-0.3-0.5-0.3-0.8
	v-1.9c0,0,0-0.1,0.1-0.1H80c0,0,0.1,0,0.1,0.1v1.9c0,0.2,0.1,0.3,0.2,0.4s0.3,0.2,0.4,0.2c0.2,0,0.3-0.1,0.4-0.2s0.2-0.3,0.2-0.4
	v-1.9c0,0,0-0.1,0.1-0.1h0.5c0,0,0.1,0,0.1,0.1v3H81.8z M77.9,26.6v-0.8c0-0.2-0.1-0.3-0.2-0.4s-0.3-0.2-0.4-0.2
	c-0.2,0-0.3,0.1-0.4,0.2s-0.2,0.3-0.2,0.4v0.8c0,0.2,0.1,0.3,0.2,0.4s0.3,0.2,0.4,0.2c0.2,0,0.3-0.1,0.4-0.2
	C77.9,26.9,77.9,26.8,77.9,26.6z M78.6,28.9C78.6,29,78.5,29,78.6,28.9L78,29c0,0-0.1,0-0.1-0.1v-1.3c0-0.1,0-0.1-0.1-0.1
	c0,0-0.1,0-0.2,0.1c-0.2,0.1-0.3,0.1-0.4,0.1c-0.3,0-0.6-0.1-0.8-0.3c-0.2-0.2-0.3-0.5-0.3-0.8v-0.8c0-0.3,0.1-0.6,0.3-0.8
	c0.2-0.2,0.5-0.3,0.8-0.3c0.2,0,0.4,0.1,0.6,0.2c0.1,0.1,0.1,0.1,0.1,0.1s0,0,0-0.1c0,0,0-0.1,0-0.2c0,0,0,0,0.1,0h0.4
	c0,0,0.1,0,0.1,0.1L78.6,28.9L78.6,28.9z M74.9,25.7c0-0.2-0.1-0.3-0.2-0.4s-0.3-0.2-0.4-0.2c-0.2,0-0.3,0.1-0.4,0.2
	s-0.2,0.2-0.2,0.4c0,0.1,0,0.1,0.1,0.1h1.1C74.8,25.8,74.9,25.8,74.9,25.7L74.9,25.7z M73,26.6v-0.9c0-0.2,0.1-0.5,0.3-0.7
	c0.3-0.3,0.6-0.5,1-0.5c0.5,0,0.8,0.2,1.1,0.6c0.1,0.2,0.2,0.4,0.2,0.6v0.5c0,0,0,0.1-0.1,0.1h-1.7c-0.1,0-0.1,0-0.1,0.1v0.3
	c0,0.2,0.1,0.3,0.2,0.4s0.3,0.2,0.4,0.2c0.2,0,0.4-0.1,0.5-0.2s0.2-0.2,0.2-0.2l0,0l0.4,0.2c0,0,0,0,0,0.1c0,0.2-0.1,0.4-0.4,0.5
	c-0.2,0.1-0.5,0.2-0.7,0.2c-0.4,0-0.7-0.1-0.9-0.3C73.2,27.3,73,27,73,26.6z M69.7,26.8c0-0.1-0.2-0.3-0.5-0.5
	c-0.2-0.2-0.4-0.3-0.6-0.4l0,0c-0.2,0.1-0.4,0.3-0.4,0.6v0.2c0,0.2,0.1,0.3,0.2,0.4s0.3,0.2,0.4,0.2H69
	C69.3,27.3,69.5,27.1,69.7,26.8L69.7,26.8z M69.5,24.6v-0.1c0-0.2-0.1-0.3-0.2-0.4s-0.3-0.2-0.5-0.2s-0.3,0.1-0.4,0.2
	s-0.2,0.3-0.2,0.4c0,0.3,0.2,0.5,0.6,0.8h0.1C69.3,25.2,69.5,25,69.5,24.6z M71.3,27.7c0,0,0,0.1-0.1,0.1c-0.2,0-0.5-0.1-0.8-0.3
	l-0.3-0.2l-0.3,0.3c-0.2,0.2-0.4,0.2-0.8,0.2h-0.2c-0.4,0-0.7-0.1-0.9-0.3c-0.2-0.2-0.3-0.5-0.3-0.9v-0.2c0-0.2,0.1-0.4,0.2-0.5
	c0.2-0.2,0.3-0.3,0.3-0.3s0-0.1-0.1-0.2l-0.2-0.2c-0.1-0.2-0.2-0.4-0.2-0.6c0-0.4,0.1-0.7,0.3-0.9c0.2-0.2,0.5-0.3,0.9-0.3
	s0.7,0.1,0.9,0.3c0.2,0.2,0.3,0.5,0.3,0.9v0.1c0,0.2-0.1,0.5-0.3,0.7c-0.1,0.1-0.1,0.1-0.2,0.2c-0.1,0-0.1,0.1-0.1,0.1
	s0.1,0.1,0.2,0.2s0.1,0.1,0.2,0.2s0.1,0.1,0.2,0.1c0,0,0.1-0.1,0.2-0.4c0.2-0.3,0.5-0.5,1-0.5h0.1c0,0,0.1,0,0.1,0.1v0.5
	c0,0,0,0.1-0.1,0.1h-0.2c-0.2,0-0.3,0.1-0.4,0.2s-0.2,0.3-0.2,0.4v0.1v0.1c0.2,0.2,0.4,0.3,0.8,0.5c0,0,0.1,0,0.1,0.1L71.3,27.7
	L71.3,27.7z M65.6,27.7L65.6,27.7H65c0,0-0.1,0-0.1-0.1v-1.9c0-0.2-0.1-0.3-0.2-0.4s-0.3-0.2-0.4-0.2s-0.3,0.1-0.4,0.2
	s-0.2,0.3-0.2,0.4v1.9c0,0,0,0.1-0.1,0.1h-0.5c0,0-0.1,0-0.1-0.1v-3c0,0,0-0.1,0.1-0.1h0.4h0.1v0.2v0.1c0,0,0.1,0,0.2-0.1
	c0.2-0.1,0.3-0.2,0.5-0.2c0.3,0,0.6,0.1,0.9,0.3c0.2,0.2,0.3,0.5,0.3,0.8L65.6,27.7L65.6,27.7z M61.8,26.6v-0.9
	c0-0.2-0.1-0.3-0.2-0.4c-0.1-0.1-0.3-0.2-0.4-0.2c-0.2,0-0.3,0.1-0.4,0.2c-0.1,0.1-0.2,0.3-0.2,0.4v0.9c0,0.2,0.1,0.3,0.2,0.4
	c0.1,0.1,0.3,0.2,0.4,0.2c0.2,0,0.3-0.1,0.4-0.2S61.8,26.8,61.8,26.6z M62.4,26.6c0,0.4-0.1,0.6-0.3,0.9c-0.2,0.2-0.5,0.3-0.9,0.3
	s-0.7-0.1-0.9-0.3C60.1,27.3,60,27,60,26.6v-0.9c0-0.4,0.1-0.6,0.3-0.9c0.2-0.2,0.5-0.3,0.9-0.3s0.7,0.1,0.9,0.3
	c0.2,0.2,0.4,0.5,0.4,0.9v0.9H62.4z M59.4,27.7L59.4,27.7l-0.6,0.1c0,0-0.1,0-0.1-0.1v-3c0,0,0-0.1,0.1-0.1h0.5c0,0,0.1,0,0.1,0.1
	V27.7z M59.1,23.3c0.1,0,0.2,0,0.3,0.1s0.1,0.2,0.1,0.3c0,0.1,0,0.2-0.1,0.3c-0.1,0.1-0.2,0.1-0.3,0.1s-0.2,0-0.3-0.1
	s-0.1-0.2-0.1-0.3c0-0.1,0-0.2,0.1-0.3C58.9,23.4,59,23.3,59.1,23.3z M56.9,24C56.9,23.9,56.9,23.9,56.9,24l0.6-0.1
	c0,0,0.1,0,0.1,0.1v0.6l0.1,0.1h0.5c0.1,0,0.1,0,0.1,0.1v0.4c0,0,0,0.1-0.1,0.1h-0.5c0,0-0.1,0-0.1,0.1v1.4c0,0.2,0.1,0.4,0.3,0.5
	c0,0,0.1,0.1,0.3,0.1l0,0v0.4c0,0.1,0,0.1-0.1,0.1c-0.3,0-0.6-0.1-0.8-0.3c-0.2-0.2-0.3-0.5-0.3-0.8v-1.4c0,0,0-0.1-0.1-0.1h-0.2
	c0,0-0.1,0-0.1-0.1v-0.4c0,0,0-0.1,0.1-0.1h0.2c0,0,0.1,0,0.1-0.1L56.9,24L56.9,24z M55,24.6c0.5,0,0.8,0.2,1,0.5
	c0.1,0.1,0.1,0.2,0.1,0.2s0,0,0,0.1l-0.4,0.2l0,0c0,0,0,0-0.1-0.1c-0.2-0.2-0.3-0.4-0.6-0.4c-0.2,0-0.3,0.1-0.4,0.2
	c-0.1,0.1-0.2,0.3-0.2,0.4v0.9c0,0.2,0.1,0.3,0.2,0.4c0.1,0.1,0.3,0.2,0.4,0.2c0.2,0,0.4-0.1,0.5-0.2s0.1-0.2,0.1-0.2l0,0L56,27
	c0,0,0,0,0,0.1c0,0.2-0.1,0.4-0.4,0.5c-0.3,0.1-0.5,0.2-0.7,0.2c-0.4,0-0.7-0.1-0.9-0.3c-0.2-0.2-0.3-0.5-0.3-0.9v-0.9
	c0-0.4,0.1-0.6,0.3-0.9C54.4,24.7,54.7,24.6,55,24.6z M53.1,27.7L53.1,27.7l-0.5,0.1c0,0-0.1,0-0.1-0.1s0-0.2,0-0.2l0,0
	c0,0-0.1,0-0.2,0.1c-0.2,0.1-0.3,0.1-0.5,0.1c-0.3,0-0.6-0.1-0.8-0.3c-0.2-0.2-0.3-0.5-0.3-0.8v-1.9c0,0,0-0.1,0.1-0.1h0.5
	c0,0,0.1,0,0.1,0.1v1.9c0,0.2,0.1,0.3,0.2,0.4c0.1,0.1,0.3,0.2,0.4,0.2s0.3-0.1,0.4-0.2c0.1-0.1,0.2-0.3,0.2-0.4v-1.9
	c0,0,0-0.1,0.1-0.1h0.5c0,0,0.1,0,0.1,0.1v3H53.1z M50.3,25.2C50.3,25.2,50.2,25.3,50.3,25.2c-0.1,0.1-0.1,0.1-0.2,0
	c-0.1,0-0.1,0-0.2,0c-0.2,0-0.3,0.1-0.4,0.2c-0.1,0.1-0.2,0.3-0.2,0.4v1.9c0,0,0,0.1-0.1,0.1h-0.5c0,0-0.1,0-0.1-0.1v-3
	c0,0,0-0.1,0.1-0.1h0.4c0,0,0.1,0,0.1,0.1v0.1c0,0.1,0,0.1,0.1,0.1c0,0,0.1,0,0.2-0.1c0.1-0.1,0.3-0.1,0.4-0.1c0.2,0,0.4,0,0.4,0.1
	V25.2z M46.8,24C46.8,23.9,46.8,23.9,46.8,24l0.6-0.1c0,0,0.1,0,0.1,0.1v0.6l0.1,0.1H48c0.1,0,0.1,0,0.1,0.1v0.4c0,0,0,0.1-0.1,0.1
	h-0.5c0,0-0.1,0-0.1,0.1v1.4c0,0.2,0.1,0.4,0.3,0.5c0,0,0.1,0.1,0.3,0.1l0,0v0.4c0,0.1,0,0.1-0.1,0.1c-0.3,0-0.6-0.1-0.8-0.3
	c-0.2-0.2-0.3-0.5-0.3-0.8v-1.4c0,0,0-0.1-0.1-0.1h-0.2c0,0-0.1,0-0.1-0.1v-0.4c0,0,0-0.1,0.1-0.1h0.2c0,0,0.1,0,0.1-0.1
	C46.8,24.6,46.8,24,46.8,24z M45.9,25.3l-0.4,0.2l0,0c0,0,0,0-0.1-0.1c0,0,0-0.1-0.1-0.1c-0.1-0.1-0.3-0.2-0.4-0.2
	c-0.1,0-0.2,0-0.3,0.1s-0.2,0.1-0.2,0.2s0.1,0.2,0.3,0.3c0.1,0,0.3,0.1,0.5,0.2c0.5,0.2,0.8,0.5,0.8,1c0,0.3-0.1,0.5-0.4,0.7
	c-0.2,0.1-0.5,0.2-0.8,0.2c-0.5,0-0.9-0.2-1.1-0.6c0-0.1-0.1-0.1-0.1-0.2l0,0l0.5-0.2l0,0l0,0c0.1,0.3,0.3,0.4,0.6,0.5
	c0.1,0,0.2,0,0.3-0.1s0.2-0.2,0.2-0.3c0-0.1-0.1-0.2-0.2-0.3c-0.1,0-0.3-0.1-0.5-0.2c-0.5-0.2-0.8-0.5-0.8-0.9
	c0-0.3,0.1-0.5,0.4-0.7c0.2-0.1,0.5-0.2,0.8-0.2c0.4,0,0.7,0.2,1,0.5C45.9,25.2,45.9,25.2,45.9,25.3L45.9,25.3z M42.9,27.7
	L42.9,27.7l-0.6,0.1c0,0-0.1,0-0.1-0.1v-1.9c0-0.2-0.1-0.3-0.2-0.4c-0.1-0.1-0.3-0.2-0.4-0.2c-0.2,0-0.3,0.1-0.4,0.2
	c-0.1,0.1-0.2,0.3-0.2,0.4v1.9c0,0,0,0.1-0.1,0.1h-0.5c0,0-0.1,0-0.1-0.1v-3c0,0,0-0.1,0.1-0.1h0.4h0.1v0.2v0.1c0,0,0.1,0,0.2-0.1
	c0.2-0.1,0.3-0.2,0.5-0.2c0.3,0,0.6,0.1,0.9,0.3c0.2,0.2,0.3,0.5,0.3,0.8L42.9,27.7L42.9,27.7z M39.1,26.6v-0.9
	c0-0.2-0.1-0.3-0.2-0.4c-0.1-0.1-0.3-0.2-0.4-0.2c-0.2,0-0.3,0.1-0.4,0.2c-0.1,0.1-0.2,0.3-0.2,0.4v0.9c0,0.2,0.1,0.3,0.2,0.4
	c0.1,0.1,0.3,0.2,0.4,0.2c0.2,0,0.3-0.1,0.4-0.2C39.1,26.9,39.1,26.8,39.1,26.6z M39.8,26.6c0,0.4-0.1,0.6-0.3,0.9
	c-0.2,0.2-0.5,0.3-0.9,0.3s-0.7-0.1-0.9-0.3c-0.2-0.2-0.3-0.5-0.3-0.9v-0.9c0-0.4,0.1-0.6,0.3-0.9c0.2-0.2,0.5-0.3,0.9-0.3
	s0.7,0.1,0.9,0.3c0.2,0.2,0.4,0.5,0.4,0.9v0.9H39.8z M35.7,24.6c0.5,0,0.8,0.2,1,0.5c0.1,0.1,0.1,0.2,0.1,0.2s0,0,0,0.1l-0.4,0.2
	l0,0c0,0,0,0-0.1-0.1c-0.2-0.2-0.3-0.4-0.6-0.4c-0.2,0-0.3,0.1-0.4,0.2c-0.1,0.1-0.2,0.3-0.2,0.4v0.9c0,0.2,0.1,0.3,0.2,0.4
	c0.1,0.1,0.3,0.2,0.4,0.2c0.2,0,0.4-0.1,0.5-0.2s0.1-0.2,0.1-0.2l0,0l0.4,0.2c0,0,0,0,0,0.1c0,0.2-0.1,0.4-0.4,0.5
	c-0.3,0.1-0.5,0.2-0.7,0.2c-0.4,0-0.7-0.1-0.9-0.3c-0.2-0.2-0.3-0.5-0.3-0.9v-0.9c0-0.4,0.1-0.6,0.3-0.9
	C35,24.7,35.3,24.6,35.7,24.6z"/>
</svg>
