<?xml version="1.0" encoding="UTF-8" standalone="no"?>
<!DOCTYPE svg PUBLIC "-//W3C//DTD SVG 1.1//EN" "http://www.w3.org/Graphics/SVG/1.1/DTD/svg11.dtd">
<svg version="1.1" xmlns="http://www.w3.org/2000/svg" xmlns:xlink="http://www.w3.org/1999/xlink" preserveAspectRatio="xMidYMid meet" viewBox="0 0 640 640" width="100" height="100"><defs><path d="M327.62 7.65L331.44 7.84L335.25 8.1L339.04 8.43L342.82 8.84L346.58 9.32L350.32 9.87L354.04 10.49L357.75 11.19L361.43 11.96L365.1 12.8L368.74 13.71L372.36 14.69L375.95 15.74L379.53 16.86L383.08 18.05L386.6 19.31L390.09 20.64L393.56 22.03L397 23.49L400.41 25.03L403.8 26.62L407.15 28.29L410.47 30.02L413.75 31.82L417.01 33.68L420.23 35.61L423.42 37.61L426.57 39.67L429.68 41.79L432.76 43.98L435.8 46.23L438.8 48.55L441.76 50.93L444.68 53.37L447.56 55.87L450.39 58.43L453.19 61.06L455.94 63.75L458.63 66.5L461.27 69.3L463.84 72.13L466.36 75.01L468.8 77.94L471.19 80.9L473.51 83.9L475.77 86.94L477.96 90.02L480.09 93.14L482.15 96.29L484.15 99.48L486.09 102.7L487.95 105.96L489.75 109.25L491.49 112.57L493.15 115.92L494.75 119.3L496.29 122.72L497.75 126.16L499.15 129.62L500.47 133.12L501.73 136.64L502.92 140.19L504.04 143.76L505.08 147.35L506.06 150.97L506.97 154.6L507.8 158.26L508.57 161.94L509.26 165.64L509.88 169.35L510.42 173.09L510.9 176.84L511.3 180.6L511.63 184.38L511.88 188.17L512.06 191.98L512.16 195.8L512.19 199.63L512.19 440.13L512.03 448.05L511.55 455.89L510.76 463.64L509.67 471.3L508.27 478.86L506.59 486.32L504.62 493.66L502.37 500.88L499.85 507.98L497.05 514.96L494 521.79L490.7 528.48L487.14 535.02L483.34 541.41L479.31 547.63L475.04 553.69L470.56 559.57L465.85 565.27L460.93 570.79L455.81 576.11L450.49 581.23L444.98 586.15L439.28 590.86L433.4 595.35L427.35 599.61L421.13 603.65L414.75 607.45L408.21 611L401.52 614.31L394.7 617.37L387.73 620.16L380.64 622.68L373.42 624.93L366.08 626.9L358.63 628.59L351.08 629.98L343.43 631.07L335.68 631.86L327.85 632.34L319.94 632.5L312.03 632.34L304.19 631.86L296.45 631.07L288.8 629.98L281.24 628.59L273.8 626.9L266.46 624.93L259.24 622.68L252.14 620.16L245.18 617.37L238.35 614.31L231.67 611L225.13 607.45L218.75 603.65L212.53 599.61L206.47 595.35L200.59 590.86L194.9 586.15L189.38 581.23L184.06 576.11L178.94 570.79L174.02 565.27L169.32 559.57L164.83 553.69L160.57 547.63L156.53 541.41L152.74 535.02L149.18 528.48L145.87 521.79L142.82 514.96L140.03 507.98L137.51 500.88L135.26 493.66L133.28 486.32L131.6 478.86L130.21 471.3L129.11 463.64L128.33 455.89L127.85 448.05L127.69 440.13L127.69 199.75L127.85 191.84L128.33 184.01L129.11 176.26L130.21 168.61L131.6 161.06L133.28 153.61L135.26 146.27L137.51 139.05L140.03 131.96L142.82 124.99L145.87 118.16L149.18 111.48L152.74 104.94L156.53 98.56L160.57 92.34L164.83 86.29L169.32 80.41L174.02 74.71L178.94 69.2L184.06 63.88L189.38 58.75L194.9 53.84L200.59 49.13L206.47 44.64L212.53 40.38L218.75 36.35L225.13 32.55L231.67 28.99L238.35 25.68L245.18 22.63L252.14 19.84L259.24 17.32L266.46 15.07L273.8 13.1L281.24 11.41L288.8 10.02L296.45 8.93L304.19 8.14L312.03 7.66L319.94 7.5L323.78 7.54L327.62 7.65ZM318.06 97.58L317.07 97.68L316.1 97.82L315.14 97.99L314.19 98.21L313.26 98.45L312.34 98.74L311.44 99.06L310.56 99.41L309.69 99.8L308.84 100.21L308.02 100.66L307.21 101.14L306.42 101.65L305.65 102.19L304.91 102.76L304.18 103.35L303.49 103.98L302.81 104.63L302.16 105.3L301.54 106L300.95 106.72L300.38 107.46L299.84 108.23L299.33 109.02L298.85 109.83L298.4 110.66L297.98 111.5L297.6 112.37L297.25 113.26L296.93 114.16L296.64 115.07L296.39 116.01L296.18 116.95L296.01 117.91L295.87 118.89L295.77 119.87L295.71 120.87L295.69 121.88L295.69 161.75L295.7 162.52L295.73 163.28L295.79 164.03L295.88 164.78L295.98 165.52L296.11 166.26L296.25 166.98L296.42 167.7L296.61 168.42L296.83 169.12L297.06 169.81L297.31 170.5L297.58 171.18L297.87 171.84L298.19 172.5L298.52 173.14L298.86 173.78L299.23 174.4L299.61 175.01L300.02 175.61L300.43 176.2L300.87 176.77L301.32 177.33L301.79 177.88L302.27 178.41L302.77 178.93L303.29 179.44L303.82 179.92L304.36 180.4L304.92 180.86L305.49 181.3L306.07 181.73L306.67 182.14L307.28 182.53L307.9 182.9L308.54 183.26L309.18 183.6L309.84 183.92L310.51 184.22L311.19 184.5L310.52 184.78L309.86 185.08L309.21 185.4L308.57 185.74L307.94 186.09L307.32 186.46L306.71 186.85L306.12 187.26L305.54 187.68L304.97 188.12L304.41 188.58L303.87 189.05L303.34 189.53L302.83 190.03L302.33 190.55L301.84 191.08L301.37 191.62L300.92 192.18L300.48 192.75L300.06 193.33L299.66 193.92L299.27 194.53L298.9 195.15L298.55 195.78L298.22 196.42L297.9 197.07L297.61 197.73L297.33 198.4L297.08 199.08L296.84 199.78L296.63 200.48L296.44 201.18L296.26 201.9L296.11 202.63L295.98 203.36L295.88 204.1L295.8 204.85L295.74 205.6L295.7 206.36L295.69 207.13L295.69 212.13L295.71 213.13L295.77 214.13L295.87 215.11L296.01 216.09L296.18 217.05L296.39 217.99L296.64 218.93L296.93 219.84L297.25 220.74L297.6 221.63L297.98 222.5L298.4 223.34L298.85 224.17L299.33 224.98L299.84 225.77L300.38 226.54L300.95 227.28L301.54 228L302.16 228.7L302.81 229.38L303.49 230.02L304.18 230.65L304.91 231.24L305.65 231.81L306.42 232.35L307.21 232.86L308.02 233.34L308.84 233.79L309.69 234.2L310.56 234.59L311.44 234.94L312.34 235.26L313.26 235.55L314.19 235.79L315.14 236.01L316.1 236.18L317.07 236.32L318.06 236.42L319.06 236.48L320.06 236.5L321.07 236.48L322.07 236.42L323.05 236.32L324.03 236.18L324.99 236.01L325.93 235.79L326.86 235.55L327.78 235.26L328.68 234.94L329.57 234.59L330.43 234.2L331.28 233.79L332.11 233.34L332.92 232.86L333.71 232.35L334.47 231.81L335.22 231.24L335.94 230.65L336.64 230.02L337.31 229.38L337.96 228.7L338.58 228L339.18 227.28L339.75 226.54L340.28 225.77L340.79 224.98L341.27 224.17L341.72 223.34L342.14 222.5L342.53 221.63L342.88 220.74L343.2 219.84L343.48 218.93L343.73 217.99L343.94 217.05L344.12 216.09L344.26 215.11L344.36 214.13L344.42 213.13L344.44 212.13L344.44 207.13L344.43 206.36L344.39 205.6L344.33 204.84L344.25 204.1L344.15 203.35L344.02 202.62L343.87 201.89L343.7 201.17L343.51 200.46L343.3 199.76L343.07 199.06L342.81 198.38L342.54 197.7L342.25 197.04L341.94 196.38L341.61 195.74L341.26 195.11L340.9 194.49L340.51 193.88L340.11 193.28L339.69 192.7L339.26 192.13L338.8 191.57L338.34 191.02L337.85 190.49L337.35 189.98L336.84 189.48L336.31 188.99L335.77 188.52L335.21 188.07L334.64 187.63L334.05 187.21L333.46 186.81L332.85 186.42L332.22 186.06L331.59 185.71L330.94 185.38L330.29 185.06L329.62 184.77L328.94 184.5L329.61 184.22L330.27 183.92L330.92 183.6L331.56 183.26L332.19 182.91L332.81 182.53L333.41 182.14L334.01 181.74L334.59 181.31L335.16 180.88L335.71 180.42L336.25 179.95L336.78 179.46L337.3 178.96L337.8 178.44L338.28 177.91L338.75 177.37L339.2 176.81L339.64 176.24L340.06 175.66L340.47 175.06L340.85 174.45L341.22 173.83L341.57 173.2L341.91 172.55L342.22 171.9L342.52 171.23L342.79 170.55L343.05 169.87L343.28 169.17L343.5 168.47L343.69 167.75L343.86 167.03L344.01 166.3L344.14 165.56L344.25 164.81L344.33 164.06L344.39 163.29L344.43 162.53L344.44 161.75L344.44 121.88L344.42 120.87L344.36 119.87L344.26 118.89L344.12 117.91L343.94 116.95L343.73 116.01L343.48 115.07L343.2 114.16L342.88 113.26L342.53 112.37L342.14 111.5L341.72 110.66L341.27 109.83L340.79 109.02L340.28 108.23L339.75 107.46L339.18 106.72L338.58 106L337.96 105.3L337.31 104.63L336.64 103.98L335.94 103.35L335.22 102.76L334.47 102.19L333.71 101.65L332.92 101.14L332.11 100.66L331.28 100.21L330.43 99.8L329.57 99.41L328.68 99.06L327.78 98.74L326.86 98.45L325.93 98.21L324.99 97.99L324.03 97.82L323.05 97.68L322.07 97.58L321.07 97.52L320.06 97.5L319.06 97.52L318.06 97.58Z" id="auaIEHPTN"></path></defs><g><g><g><use xlink:href="#auaIEHPTN" opacity="1" fill="#ffffff" fill-opacity="1"></use></g></g></g></svg>