<?xml version="1.0" encoding="utf-8"?>
<!-- Generator: Adobe Illustrator 22.0.1, SVG Export Plug-In . SVG Version: 6.00 Build 0)  -->
<svg version="1.1" id="Слой_7" xmlns="http://www.w3.org/2000/svg" xmlns:xlink="http://www.w3.org/1999/xlink" x="0px" y="0px"
	 viewBox="0 0 477.5 477.5" style="enable-background:new 0 0 477.5 477.5;" xml:space="preserve">
<style type="text/css">
	.st0{fill:#333333;}
	.st1{fill:#E3000F;}
</style>
<g>
	<g>
		<path class="st0" d="M450.5,168.7c-7.4-22.9,2.7-55-11.2-74.1c-14-19.3-47.8-19.5-67.1-33.5c-19.1-13.9-29.6-46-52.6-53.5
			c-22.1-7.2-49.4,12.4-74,12.4c-24.5,0-51.9-19.6-74-12.4C148.8,15,138.2,47.2,119.1,61c-19.3,14-53,14.2-67.1,33.5
			c-13.9,19.1-3.8,51.2-11.2,74.1c-7.2,22.1-34.5,42-34.5,66.6c0,24.5,27.3,44.4,34.5,66.6c7.4,22.9-2.7,55,11.2,74.1
			c14,19.3,47.8,19.5,67.1,33.5c19.1,13.9,29.6,46,52.6,53.5c22.1,7.2,49.4-12.4,74-12.4s51.9,19.6,74,12.4
			c22.9-7.4,33.5-39.6,52.6-53.5c19.3-14,53-14.2,67.1-33.5c13.9-19.1,3.7-51.2,11.2-74.1c7.2-22.1,34.5-42,34.5-66.6
			C485,210.7,457.7,190.8,450.5,168.7z M245.7,420.5c-102.3,0-185.3-83-185.3-185.3C60.4,132.9,143.4,50,245.7,50
			c102.3,0,185.3,82.9,185.3,185.3C430.9,337.6,348,420.5,245.7,420.5z"/>
		<path class="st1" d="M245.7,72.9c-89.5,0-162.3,72.8-162.3,162.3s72.8,162.3,162.3,162.3S408,324.8,408,235.3
			S335.2,72.9,245.7,72.9z M245.7,371.1c-74.9,0-135.8-60.9-135.8-135.8S170.8,99.4,245.7,99.4c74.9,0,135.8,60.9,135.8,135.8
			S320.6,371.1,245.7,371.1z"/>
	</g>
</g>
<g>
	<g>
		<path class="st1" d="M162.1,301.2h30.8v26.4c0,1.3,0.4,2.3,1.2,3.2c0.8,0.8,1.9,1.2,3.2,1.2h22.9c1.2,0,2.2-0.4,3.1-1.2
			c0.9-0.8,1.3-1.9,1.3-3.2v-26.4H294c1.3,0,2.3-0.4,3.2-1.2c0.8-0.8,1.2-1.9,1.2-3.2v-17.6c0-1.3-0.4-2.3-1.2-3.2
			c-0.8-0.8-1.9-1.2-3.2-1.2h-69.4v-16.2h46.7c18.3,0,33.3-5.6,44.9-16.8c11.6-11.2,17.4-25.6,17.4-43.3c0-17.7-5.8-32.1-17.4-43.3
			c-11.6-11.2-26.5-16.8-44.9-16.8h-74.1c-1.3,0-2.3,0.4-3.2,1.2c-0.8,0.8-1.2,1.9-1.2,3.2v86.4h-30.8c-1.3,0-2.3,0.4-3.2,1.3
			c-0.8,0.9-1.2,1.9-1.2,3.1v20.5c0,1.3,0.4,2.3,1.2,3.2c0.8,0.8,1.9,1.2,3.2,1.2h30.8v16.2h-30.8c-1.3,0-2.3,0.4-3.2,1.2
			c-0.8,0.8-1.2,1.9-1.2,3.2v17.6c0,1.3,0.4,2.3,1.2,3.2C159.8,300.8,160.8,301.2,162.1,301.2z M224.6,167.8h44
			c9.7,0,17.5,2.8,23.5,8.5c6,5.7,8.9,13.1,8.9,22.3c0,9.2-3,16.6-8.9,22.3c-6,5.7-13.8,8.5-23.5,8.5h-44V167.8z"/>
	</g>
</g>
</svg>
