<?xml version="1.0" encoding="utf-8"?>
<!-- Generator: Adobe Illustrator 22.0.1, SVG Export Plug-In . SVG Version: 6.00 Build 0)  -->
<svg version="1.1" id="Capa_1" xmlns="http://www.w3.org/2000/svg" xmlns:xlink="http://www.w3.org/1999/xlink" x="0px" y="0px"
	 viewBox="0 0 477.5 477.5" style="enable-background:new 0 0 477.5 477.5;" xml:space="preserve">
<style type="text/css">
	.st0{fill:#333333;}
	.st1{fill:#E3000F;}
</style>
<g>
	<g>
		<g>
			<path class="st0" d="M238.7,20c58.4,0,113.3,22.8,154.7,64.1c41.3,41.3,64,96.2,64,154.7s-22.7,113.4-64,154.7s-96.2,64-154.7,64
				c-36.1,0-72-9-103.6-26l-10.8-5.8l-10.1,6.9c-22.4,15.4-49.5,24.3-74.5,24.3c-4.5,0-9.1-0.4-13.9-1.1c-1.3-0.2-1.7-1.2-1.9-1.9
				c-0.1-1,0.4-2,1.3-2.4c18.4-9,34.1-26.8,46.7-52.7l5.6-11.6l-8.2-9.9c-34.4-41.8-51.9-94.8-49.3-149.1
				C22.9,173.7,45.6,122.5,84,84C125.3,42.7,180.3,20,238.7,20 M238.7,0C174.9,0,115,24.8,69.9,69.9c-87,87-93.3,226-15.8,320.2
				c-10.7,21.9-23.4,36.5-37.6,43.5c-8.7,4.3-13.6,13.7-12.2,23.3c1.5,9.7,8.9,17.2,18.6,18.7c5.3,0.8,11,1.3,16.9,1.3
				c29.3,0,60.1-10.1,85.8-27.8c34.6,18.6,73.5,28.4,113.1,28.4c63.8,0,123.7-24.8,168.8-69.9s69.9-105.1,69.9-168.8
				S452.6,115.1,407.5,70S302.5,0,238.7,0L238.7,0z"/>
		</g>
		<path class="st1" d="M299.3,129.4c-21.6,0-41.9,8.4-57.2,23.7l-3.4,3.4l-3.4-3.4c-15.3-15.3-35.6-23.7-57.2-23.7
			c-21.5,0-41.8,8.4-57,23.6c-15.3,15.3-23.7,35.6-23.6,57.1c0,21.6,8.5,41.8,23.7,57.1l107.9,107.9c2.6,2.6,6.1,4,9.5,4
			s6.9-1.3,9.5-3.9l108.2-107.8c15.3-15.3,23.7-35.6,23.7-57.1c0-21.6-8.4-41.9-23.6-57.2C341.1,137.8,320.8,129.4,299.3,129.4z
			 M337.2,248.3l-98.6,98.2l-98.4-98.4c-10.2-10.2-15.8-23.7-15.8-38.1c0-14.4,5.6-27.9,15.7-38c10.1-10.1,23.6-15.7,38-15.7
			s27.9,5.6,38.1,15.8l13,13c5.3,5.3,13.8,5.3,19.1,0l12.9-12.9c10.2-10.2,23.7-15.8,38.1-15.8c14.3,0,27.8,5.6,38,15.8
			s15.8,23.7,15.7,38C353,224.6,347.4,238.1,337.2,248.3z"/>
	</g>
</g>
</svg>
