<?xml version="1.0" encoding="utf-8"?>
<!-- Generator: Adobe Illustrator 22.0.1, SVG Export Plug-In . SVG Version: 6.00 Build 0)  -->
<svg version="1.1" id="Capa_1" xmlns="http://www.w3.org/2000/svg" xmlns:xlink="http://www.w3.org/1999/xlink" x="0px" y="0px"
	 viewBox="0 0 512 512" style="enable-background:new 0 0 512 512;" xml:space="preserve">
<style type="text/css">
	.st0{fill:#333333;}
	.st1{fill:#E3000F;}
</style>
<g>
	<g>
		<path class="st0" d="M256,449c-5.5,0-10,4.5-10,10s4.5,10,10,10c5.5,0,10-4.5,10-10S261.5,449,256,449z"/>
	</g>
</g>
<g>
	<g>
		<path class="st0" d="M256,0c-5.5,0-10,4.5-10,10v66c0,5.5,4.5,10,10,10s10-4.5,10-10V10C266,4.5,261.5,0,256,0z"/>
	</g>
</g>
<g>
	<g>
		<path class="st0" d="M114.6,150.4L58.1,93.9c-3.9-3.9-10.2-3.9-14.1,0s-3.9,10.2,0,14.1l56.5,56.5c3.9,3.9,10.2,3.9,14.1,0
			C118.5,160.7,118.5,154.3,114.6,150.4z"/>
	</g>
</g>
<g>
	<g>
		<path class="st0" d="M468.1,93.9c-3.9-3.9-10.2-3.9-14.1,0l-56.6,56.6c-3.9,3.9-3.9,10.2,0,14.1c3.9,3.9,10.2,3.9,14.1,0
			l56.6-56.6C472,104.1,472,97.8,468.1,93.9z"/>
	</g>
</g>
<g>
	<g>
		<path class="st1" d="M510,190c-1.9-2.5-4.9-4-8-4c-20.1,0-38.9,9.2-51.2,24.7c-5.7-3-12.1-4.7-18.8-4.7c-22.1,0-40,17.9-40,40
			c0,16.6,10.1,30.8,24.5,36.9l-1.8,2.2c-10.4,12.5-29.5,20.9-47.6,20.9c-15.3,0-33.1-6.1-43.9-17l-5-5
			c16.1-5.2,27.8-20.3,27.8-38.1c0-22.1-17.9-40-40-40h-1c1.4-7.1,1.3-14.5-0.4-21.8c-4.3-18.4-19.6-33.3-38.1-37.1
			c-31.8-6.5-60.5,17.5-60.5,48.9c0,3.4,0.3,6.7,1,10h-1c-22.1,0-40,17.9-40,40c0,17.8,11.7,32.9,27.8,38.1l-5,5
			c-10.3,10.3-27.6,17-43.9,17c-17.5,0-36.7-7.8-47.5-20.9l-1.8-2.2c14.4-6.1,24.5-20.3,24.5-36.9c0-22.1-17.9-40-40-40
			c-6.7,0-13.1,1.6-18.8,4.7C48.9,195.2,30.1,186,10,186c-3.2,0-6.1,1.5-8,4s-2.5,5.8-1.6,8.8L62.6,406H56c-5.5,0-10,4.5-10,10
			s4.5,10,10,10h10v56c0,16.5,13.5,30,30,30h320c16.5,0,30-13.5,30-30v-56h10c5.5,0,10-4.5,10-10s-4.5-10-10-10h-6.6l62.1-207.1
			C512.5,195.8,511.9,192.6,510,190z M426,449H296c-5.5,0-10,4.5-10,10s4.5,10,10,10h130v13c0,5.5-4.5,10-10,10H96
			c-5.5,0-10-4.5-10-10v-13h130c5.5,0,10-4.5,10-10s-4.5-10-10-10H86v-23h340V449z M428.6,406H83.4L24.1,208.2
			c10.9,3.5,20.2,11.1,25.8,21.4c3.2,5.9,11.2,7,15.9,2.2c3.8-3.8,8.8-5.9,14.2-5.9c11,0,20,9,20,20c0,12.1-10.6,21.2-22.2,19.9
			c-4.1-0.5-8,1.6-10,5.2c-1.9,3.6-1.5,8,1.1,11.2l13,15.7c14.8,17.9,39.8,28.1,62.9,28.1c21.8,0,44-8.7,58.1-22.8l20.1-20.1
			c2.9-2.9,3.7-7.2,2.2-10.9c-1.5-3.7-5.2-6.2-9.2-6.2h-10c-11,0-20-9-20-20s9-20,20-20h15.4c3.6,0,6.9-1.9,8.7-5s1.8-6.9,0-10
			c-2.6-4.5-4-9.7-4-15c0-18.5,16.8-33.4,36.5-29.3c10.9,2.2,20.2,11.3,22.7,22c2.3,9.9-0.4,17.6-3.2,22.3c-1.8,3.1-1.8,6.9,0,10
			c1.8,3.1,5.1,5,8.7,5H306c11,0,20,9,20,20s-9,20-20,20h-10c-4,0-7.7,2.4-9.2,6.2c-1.5,3.7-0.7,8,2.2,10.9l20.1,20.1
			c14.6,14.6,37.5,22.8,58.1,22.8c24,0,48.7-11,62.9-28.1l13-15.7c2.6-3.1,3-7.6,1.1-11.2c-2-3.6-5.9-5.6-10-5.2
			c-0.7,0.1-1.4,0.1-2.2,0.1c-11,0-20-9-20-20s9-20,20-20c5.4,0,10.4,2.1,14.2,5.9c2.2,2.2,5.4,3.3,8.5,2.9c3.1-0.4,5.9-2.3,7.4-5.1
			c5.6-10.3,15-17.9,25.8-21.4L428.6,406z"/>
	</g>
</g>
<g>
	<g>
		<path class="st0" d="M256,306c-22.1,0-40,17.9-40,40s17.9,40,40,40s40-17.9,40-40S278.1,306,256,306z M256,366c-11,0-20-9-20-20
			s9-20,20-20c11,0,20,9,20,20S267,366,256,366z"/>
	</g>
</g>
</svg>
