<?xml version="1.0" encoding="utf-8"?>
<!-- Generator: Adobe Illustrator 22.0.1, SVG Export Plug-In . SVG Version: 6.00 Build 0)  -->
<svg version="1.1" xmlns="http://www.w3.org/2000/svg" xmlns:xlink="http://www.w3.org/1999/xlink" x="0px" y="0px"
	 viewBox="0 0 59.8 59.4" style="enable-background:new 0 0 59.8 59.4;" xml:space="preserve">
<style type="text/css">
	.st0{fill:#E3000F;}
	.st1{fill:#333333;}
</style>
<g id="Capa_1">
	<g>
		<path class="st0" d="M43.8,5.4c-0.5-2.3-2.5-4-4.9-4c-0.6,0-1,0.4-1,1s0.4,1,1,1c1.7,0,3,1.3,3,3s-1.3,3-3,3c-0.6,0-1,0.4-1,1
			s0.4,1,1,1c2.4,0,4.4-1.7,4.9-4h13.1v7h-12h-2h-12h-2h-12h-2h-12v-7h14h3c0.6,0,1-0.4,1-1s-0.4-1-1-1h-1.8c0.4-1.2,1.5-2,2.8-2
			c1.7,0,3,1.3,3,3s-1.3,3-3,3c-0.6,0-1,0.4-1,1s0.4,1,1,1c2.8,0,5-2.2,5-5s-2.2-5-5-5c-2.4,0-4.4,1.7-4.9,4H0.9v9v3v11v2v12v2v14
			h14h2h12h2h12h2h14v-14v-2v-12v-2v-11v-3v-9H43.8z M30.9,16.4h12v12h-12V16.4z M42.9,42.4h-12v-12h12V42.4z M16.9,30.4h12v12h-12
			V30.4z M16.9,16.4h12v12h-12V16.4z M2.9,17.4v-1h12v12h-12V17.4z M2.9,30.4h12v12h-12V30.4z M2.9,56.4v-12h12v12H2.9z M16.9,56.4
			v-12h12v12H16.9z M30.9,56.4v-12h12v12H30.9z M56.9,56.4h-12v-12h12V56.4z M56.9,42.4h-12v-12h12V42.4z M44.9,28.4v-12h12v1v11
			H44.9z"/>
		<path class="st0" d="M26.9,3.4c1.7,0,3,1.3,3,3s-1.3,3-3,3c-0.6,0-1,0.4-1,1s0.4,1,1,1c2.8,0,5-2.2,5-5s-2.2-5-5-5
			c-0.6,0-1,0.4-1,1S26.3,3.4,26.9,3.4z"/>
		<path class="st0" d="M32.9,3.4c1.7,0,3,1.3,3,3s-1.3,3-3,3c-0.6,0-1,0.4-1,1s0.4,1,1,1c2.8,0,5-2.2,5-5s-2.2-5-5-5
			c-0.6,0-1,0.4-1,1S32.3,3.4,32.9,3.4z"/>
		<path class="st1" d="M18.2,41.1c0.2,0.2,0.5,0.3,0.7,0.3s0.5-0.1,0.7-0.3l3.3-3.3l3.3,3.3c0.2,0.2,0.5,0.3,0.7,0.3
			s0.5-0.1,0.7-0.3c0.4-0.4,0.4-1,0-1.4l-3.3-3.3l3.3-3.3c0.4-0.4,0.4-1,0-1.4c-0.4-0.4-1-0.4-1.4,0L22.9,35l-3.3-3.3
			c-0.4-0.4-1-0.4-1.4,0c-0.4,0.4-0.4,1,0,1.4l3.3,3.3l-3.3,3.3C17.8,40.1,17.8,40.7,18.2,41.1z"/>
		<path class="st1" d="M4.2,41.1c0.2,0.2,0.5,0.3,0.7,0.3s0.5-0.1,0.7-0.3l3.3-3.3l3.3,3.3c0.2,0.2,0.5,0.3,0.7,0.3s0.5-0.1,0.7-0.3
			c0.4-0.4,0.4-1,0-1.4l-3.3-3.3l3.3-3.3c0.4-0.4,0.4-1,0-1.4c-0.4-0.4-1-0.4-1.4,0L8.9,35l-3.3-3.3c-0.4-0.4-1-0.4-1.4,0
			c-0.4,0.4-0.4,1,0,1.4l3.3,3.3l-3.3,3.3C3.8,40.1,3.8,40.7,4.2,41.1z"/>
	</g>
</g>
<g id="Слой_2">
	<g>
		<path class="st1" d="M42.1,33.3c0,0.2-0.1,0.4-0.2,0.6L37,40l-0.9,1.1c-0.1,0.2-0.3,0.2-0.5,0.2s-0.3-0.1-0.5-0.2L34.3,40l-2.4-3
			c-0.1-0.2-0.2-0.3-0.2-0.6s0.1-0.4,0.2-0.6l0.9-1.1c0.1-0.2,0.3-0.2,0.5-0.2c0.2,0,0.3,0.1,0.5,0.2l2,2.5l4.4-5.5
			c0.1-0.2,0.3-0.2,0.5-0.2c0.2,0,0.3,0.1,0.5,0.2l0.9,1.1C42,32.9,42.1,33.1,42.1,33.3z"/>
	</g>
</g>
</svg>
