<?xml version="1.0" encoding="utf-8"?>
<!-- Generator: Adobe Illustrator 22.0.1, SVG Export Plug-In . SVG Version: 6.00 Build 0)  -->
<svg version="1.1" id="Capa_1" xmlns="http://www.w3.org/2000/svg" xmlns:xlink="http://www.w3.org/1999/xlink" x="0px" y="0px"
	 viewBox="0 0 512 512" style="enable-background:new 0 0 512 512;" xml:space="preserve">
<style type="text/css">
	.st0{fill:#E3000F;}
	.st1{fill:#333333;}
</style>
<g>
	<g>
		<g>
			<path class="st0" d="M71.1,192h3.7c52,0,98.8,29.1,122.6,74.6c15-6.7,31.2-10.6,48.1-10.6c27.9,0,54.2,10,74.9,27.3
				c0.4-18.3,2.8-36.6,5.1-52.8c2-13.9,3.9-27.3,4-38.5h-53.9c-8.5,0-16.6-3.3-22.6-9.4l-42.7-42.7c-12.2-12.2-12.3-31.8-0.6-44.3
				c-4.1-6.1-6-13.4-5.3-20.8c0.9-9.6,6.1-18.1,14.1-23.5L244.4,34c12.5-8.3,27.1-12.8,42.1-12.8c31.4,0,60.9,12.2,83.1,34.4
				c40.9,40.9,73,87.7,95.6,139.1c27.2,62,41,107.7,41,135.8c0,16.1,1.4,29.3,4.2,39c5.9,20.8-3.4,42.9-22.6,53.9
				c-76.8,43.9-164.2,67.1-252.7,67.1h-15.4c-54.8,0-109-8.8-161.1-26.1l-7.5-2.5C20.6,451.7,0,423.3,0,391.1V266.8
				C0.2,226.6,32,193.1,71.1,192z M21.5,391.2c0,23,14.7,43.3,36.5,50.6l7.5,2.5c49.8,16.6,101.7,25,154.3,25h15.4
				c84.8,0,168.5-22.2,242.1-64.3c10.6-6.1,15.8-18.2,12.6-29.6c-3.3-11.6-5-26.7-5-44.8c0-24.9-13.6-68.9-39.2-127.3
				c-21.5-49-52.2-93.6-91.1-132.6c-18.2-18.2-42.3-28.2-68-28.2c-10.8,0-21.3,3.2-30.3,9.2L230.4,69c-2.7,1.8-4.4,4.6-4.7,7.8
				c-0.3,3.2,0.8,6.3,3.1,8.6l34.1,34.1c3.6,3.6,9.2,4.5,13.8,2.2c3.5-1.7,5.8-4.9,6.5-8.8s-0.6-7.6-3.3-10.4l-9.8-9.8
				c-4.2-4.2-4.2-10.9,0-15.1c4.2-4.2,10.9-4.2,15.1,0l9.8,9.8c7.7,7.7,11.1,18.2,9.3,28.9c-1.7,10.7-8.3,19.6-18,24.4
				c-12.8,6.4-28.3,3.9-38.4-6.2l-23.3-23.3c-2.9,4.2-2.7,9.8,1,13.5l42.6,42.8c2,2,4.7,3.1,7.5,3.1h49.8c-0.7-1.1-1.3-2.2-2.2-3.1
				c-4.2-4.2-4.2-10.9,0-15.1c4.2-4.2,10.9-4.2,15.1,0c17.4,17.4,13.2,46.9,8.3,81.1c-2.5,17.7-5.2,36.1-5.2,54.5
				c0,43.9,33.2,53.3,34.7,53.7c5.7,1.5,9.1,7.2,7.7,12.9c-1.2,4.9-5.6,8.1-10.3,8.1c-0.9,0-1.7-0.1-2.6-0.3
				c-12.8-3.2-33.7-15.4-44.2-40.6c-0.1-0.2-0.4-0.3-0.5-0.5c-17.8-27.5-47.9-43.9-80.7-43.9c-25.5,0-49.5,9.9-67.6,27.8
				c-4.2,4.1-10.9,4.1-15.1-0.1c-4.1-4.2-4.1-10.9,0.1-15.1c4.9-4.9,10.3-9.1,15.9-13c-20-38.8-59.8-63.7-104-63.7h-3.2
				C44,214,21.5,238,21.5,266.7V391.2L21.5,391.2z"/>
		</g>
	</g>
</g>
<path class="st1" d="M256.2,256c38.7,3.1,85.3,39.6,85.7,42.8c4.8,35,32.7,42.8,34,43.2c5.7,1.5,9.1,7.2,7.7,12.9
	c-1.2,4.9-5.6,8.1-10.3,8.1c-0.9,0-1.7-0.1-2.6-0.3c-12.8-3.2-33.7-15.4-44.2-40.6c-0.1-0.2-0.4-0.3-0.5-0.5
	c-17.8-27.5-47.9-43.9-80.7-43.9c-25.5,0-49.5,9.9-67.6,27.8c-4.2,4.1-10.9,4.1-15.1-0.1c-4.1-4.2-4.1-10.9,0.1-15.1
	c4.9-4.9,15.9-13,15.9-13S210.9,252.3,256.2,256z"/>
</svg>
