<?xml version="1.0" encoding="utf-8"?>
<!-- Generator: Adobe Illustrator 22.0.1, SVG Export Plug-In . SVG Version: 6.00 Build 0)  -->
<svg version="1.1" id="Capa_1" xmlns="http://www.w3.org/2000/svg" xmlns:xlink="http://www.w3.org/1999/xlink" x="0px" y="0px"
	 viewBox="0 0 512 512" style="enable-background:new 0 0 512 512;" xml:space="preserve">
<style type="text/css">
	.st0{fill:#E3000F;}
	.st1{fill:#333333;}
</style>
<g>
	<g>
		<path class="st0" d="M15,243c-8.3,0-15,6.7-15,15v96.5c0,24.8,20.2,45,45,45h422c24.8,0,45-20.2,45-45V258c0-8.3-6.7-15-15-15
			 M482,354.5c0,8.3-6.7,15-15,15H45c-8.3,0-15-6.7-15-15V273h452V354.5z"/>
	</g>
</g>
<g>
	<g>
		<path class="st1" d="M497,243h-22v-83.7c-13.2-15.1-30-5.9-30,7.2V243h-21V120.3c-13.2-15.1-30-5.9-30,7.2V243h-21v-83.7
			c-13.2-15.1-30-5.9-30,7.2V243h-21V120.3c-13.2-15.1-30-5.9-30,7.2V243h-21v-83.7c-13.2-15.1-30-5.9-30,7.2V243h-21V120.3
			c-13.2-15.1-30-5.9-30,7.2V243h-21v-83.7c-13.2-15.1-30-5.9-30,7.2V243h-21l0-122.7c-13.2-15.1-30-5.9-30,7.2V243H67l0-83.7
			c-5.2-5.9-11-8.1-16-7.8c-7.8,0.5-14,7-14,15V243H15"/>
	</g>
</g>
</svg>
