<?xml version="1.0" encoding="utf-8"?>
<!-- Generator: Adobe Illustrator 22.0.1, SVG Export Plug-In . SVG Version: 6.00 Build 0)  -->
<svg version="1.1" id="Capa_1" xmlns="http://www.w3.org/2000/svg" xmlns:xlink="http://www.w3.org/1999/xlink" x="0px" y="0px"
	 viewBox="0 0 427.9 427.9" style="enable-background:new 0 0 427.9 427.9;" xml:space="preserve">
<style type="text/css">
	.st0{fill:#E3000F;}
	.st1{fill:#333333;}
</style>
<path class="st0" d="M421,369.4h-37.5V58.5H421c3.6,0,6.6-2.9,6.6-6.6c0-3.6-2.9-6.6-6.6-6.6h-38.7V6.6c0-3.6-3-6.6-6.6-6.6
	c-3.6,0-6.6,2.9-6.6,6.6v38.8H58.8V6.6c0-3.6-2.9-6.6-6.6-6.6c-3.6,0-6.6,2.9-6.6,6.6v38.8H6.9c-3.6,0-6.6,2.9-6.6,6.6
	c0,3.6,2.9,6.6,6.6,6.6h38.8v310.9H6.9c-3.6,0-6.6,2.9-6.6,6.6c0,3.6,2.9,6.6,6.6,6.6h38.8v38.8c0,3.6,2.9,6.6,6.6,6.6
	c3.6,0,6.6-3,6.6-6.6v-38.2h310.2v38.2c0,3.6,2.9,6.6,6.6,6.6c3.6,0,6.6-3,6.6-6.6v-38.8H421c3.6,0,6.6-2.9,6.6-6.6
	C427.5,372.3,424.6,369.4,421,369.4z M159,369.7H58.8V268.8H159V369.7z M159,264.4H58.8V163.8H159V264.4z M159,159.1H58.8V58.5H159
	V159.1z M264.3,369.7H163.4V268.8h100.9L264.3,369.7L264.3,369.7z M264.3,264.4H163.4V163.8h100.9L264.3,264.4L264.3,264.4z
	 M264.3,159.1H163.4V58.5h100.9L264.3,159.1L264.3,159.1z M369.6,369.7H268.7V268.8h100.9L369.6,369.7L369.6,369.7z M369.6,264.4
	H268.7V163.8h100.9L369.6,264.4L369.6,264.4z M369.6,159.1H268.7V58.5h100.9L369.6,159.1L369.6,159.1z"/>
<rect x="278.8" y="172.5" class="st1" width="82.8" height="82.8"/>
</svg>
