<?xml version="1.0" encoding="utf-8"?>
<!-- Generator: Adobe Illustrator 22.0.1, SVG Export Plug-In . SVG Version: 6.00 Build 0)  -->
<svg version="1.1" xmlns="http://www.w3.org/2000/svg" xmlns:xlink="http://www.w3.org/1999/xlink" x="0px" y="0px"
	 viewBox="0 0 512 512" style="enable-background:new 0 0 512 512;" xml:space="preserve">
<style type="text/css">
	.st0{fill:#E3000F;}
	.st1{fill:#333333;}
</style>
<g id="Capa_1">
	<g>
		<g>
			<path class="st0" d="M449,168.7V126h10c13.4,0,25.9-5.2,35.4-14.6c9.4-9.4,14.6-22,14.6-35.4c0-5.5-4.5-10-10-10h-60
				c-5.5,0-10,4.5-10,10v40v47.4c-29.6-7-65.3-12.1-104.4-14.9c-19.1-1.4-38.9-2.2-58.6-2.4V106h10c13.4,0,25.9-5.2,35.4-14.6
				c9.4-9.4,14.6-22,14.6-35.4c0-5.5-4.5-10-10-10h-60c-5.5,0-10,4.5-10,10v40v50.1c-19.8,0.2-39.5,1-58.6,2.4
				c-39.1,2.8-74.8,7.9-104.4,14.9V126h10c13.3,0,25.9-5.2,35.4-14.6c9.4-9.4,14.6-22,14.6-35.4c0-5.5-4.5-10-10-10H73
				c-5.5,0-10,4.5-10,10v40v52.7C21.2,181.1,0,197,0,216v60v60v60c0,15.2,13.6,28.5,40.4,39.5c43.1,17.7,108,25.7,154.9,28.6
				c19.9,1.3,40.3,1.9,60.6,1.9s40.8-0.6,60.6-1.9c46.4-2.9,111.7-10.9,154.9-28.6c26.8-11,40.4-24.3,40.4-39.5v-60v-60v-60
				C512,197,490.8,181.1,449,168.7z M449,86h38.3c-1.5,4.2-3.9,8-7.1,11.2c-5.7,5.7-13.2,8.8-21.2,8.8h-10V86z M266,66h38.3
				c-1.5,4.2-3.9,8-7.1,11.2C291.5,82.9,284,86,276,86h-10V66z M83,86h38.3c-1.5,4.2-3.9,8-7.1,11.2c-5.7,5.7-13.2,8.8-21.2,8.8H83
				V86z M329.5,168.9c32.9,2.6,63.1,6.9,88.8,12.6l-44.4,31.7c-20.6-2.8-44.4-4.9-69.9-6L329.5,168.9z M256,166
				c16.9,0,33.8,0.4,50.4,1.3l-26,39c-16.1-0.4-32.8-0.4-48.9,0l-26-39C222.2,166.4,239.1,166,256,166z M182.5,168.9l25.5,38.2
				c-25.4,1.1-49.2,3.2-69.9,6l-44.4-31.7C119.4,175.7,149.6,171.5,182.5,168.9z M68.5,187.9l41.9,29.9c-9.3,2-17.2,4.1-23.7,6.4
				c-8.9,3.2-20.6,8.5-23,18.4C29.9,231.9,20,221.1,20,216C20,210.8,30.4,199.3,68.5,187.9z M123,436.1C48.2,424.1,20,405.4,20,396
				v-31.1c5.7,3.7,12.6,7.2,20.7,10.5c20.6,8.4,48.9,15.5,82.3,20.8V436.1z M123,376c-30.5-5-56.2-11.5-74.7-19.1
				C27.4,348.4,20,340.3,20,336v-30.9c5.6,3.7,12.4,7.2,20.4,10.4c20.6,8.4,49,15.6,82.6,20.9V376z M123,316.1
				C48.2,304.1,20,285.4,20,276v-30.9c14.8,9.6,37.8,17.9,68.8,24.8c10.7,2.4,22.2,4.5,34.2,6.4V316.1z M186,443.4
				c-14.8-1.1-29.2-2.6-43-4.4v-39.9c13.8,1.8,28.2,3.2,43,4.3V443.4z M187.1,383.5c-15.3-1.2-30-2.7-44.1-4.5v-39.7
				c20.7,2.6,42.7,4.5,65.3,5.6c-0.3,0.3-0.7,0.6-1,1C196.6,356.1,189.7,369.2,187.1,383.5z M143,319v-39.8
				c32.1,4.1,67.3,6.4,103,6.8v40C210.2,325.6,175,323.2,143,319z M306,444.7c-13.2,0.7-26.6,1.1-40,1.2V416c0-5.5-4.5-10-10-10
				s-10,4.5-10,10v29.9c-13.4-0.1-26.8-0.6-40-1.2V396c0-0.5,0-1,0-1.6c0.8-27.2,22.8-48.4,50-48.4c13.4,0,25.9,5.2,35.4,14.6
				c9,9,14.2,21,14.6,33.8c0,0.5,0,1,0,1.6L306,444.7L306,444.7z M369,439c-13.8,1.8-28.2,3.3-43,4.4v-40c14.8-1.1,29.2-2.6,43-4.3
				V439z M369,378.9c-14.1,1.9-28.9,3.4-44.1,4.5c-2.5-13.9-9.2-26.8-19.4-37c-0.6-0.6-1.2-1.1-1.8-1.7c22.6-1.1,44.5-3,65.3-5.6
				L369,378.9L369,378.9z M369,319c-32,4.2-67.2,6.5-103,6.9v-40c35.7-0.4,70.9-2.7,103-6.8V319z M256,266
				c-42.4,0-84.4-2.8-121.5-8.1c-13.5-1.9-26.3-4.2-38.1-6.7c-0.6-0.4-1.2-0.7-1.8-0.9c-4.2-1.6-6.9-2.9-8.7-3.9
				c26.5-14.5,110.1-19.1,140.7-19.9c19.3-0.5,39.6-0.5,58.9,0c33.2,0.9,64.3,3.4,89.8,7.1c32.2,4.7,45.5,10,50.8,12.8
				c-2.3,1.3-6.1,3.1-12.3,5.2c-11.4,2.4-23.5,4.5-36.2,6.3C340.5,263.2,298.4,266,256,266z M492,396c0,9.4-28.2,28.1-103,40.1
				v-39.9c33.4-5.3,61.7-12.4,82.3-20.8c8.1-3.3,15-6.8,20.7-10.5V396z M492,336c0,4.3-7.4,12.4-28.3,20.9
				c-18.6,7.6-44.3,14.1-74.7,19.1v-39.6c33.6-5.3,62-12.4,82.6-20.9c8-3.3,14.8-6.8,20.4-10.4V336z M492,276
				c0,9.4-28.2,28.1-103,40.1v-39.8c30.7-4.8,77.1-14.4,103-31.2V276z M448.2,242.7c-2.4-10.1-14.4-15.5-23.6-18.7
				c-6.3-2.2-14-4.3-23-6.2l41.9-29.9c38.1,11.3,48.5,22.9,48.5,28.1C492,221.1,482,232,448.2,242.7z"/>
		</g>
	</g>
	<path class="st1" d="M306,444.7L306,444.7c-13.2,0.7-26.6,1.1-40,1.2V416c0-5.5-4.5-10-10-10s-10,4.5-10,10v29.9
		c-13.4-0.1-26.8-0.6-40-1.2V396c0-0.5,0-1,0-1.6c0.8-27.2,22.8-48.4,50-48.4c13.4,0,25.9,5.2,35.4,14.6c9,9,14.2,21,14.6,33.8
		c0,0.5,0,1,0,1.6V444.7"/>
</g>
<g id="Слой_2">
	<g>
		<path class="st1" d="M449,168.7V126h10c13.4,0,25.9-5.2,35.4-14.6c9.4-9.4,14.6-22,14.6-35.4c0-5.5-4.5-10-10-10h-60
			c-5.5,0-10,4.5-10,10v40v47.4L449,168.7z M449,86h38.3c-1.5,4.2-3.9,8-7.1,11.2c-5.7,5.7-13.2,8.8-21.2,8.8h-10V86z"/>
		<path class="st1" d="M266,106h10c13.4,0,25.9-5.2,35.4-14.6c9.4-9.4,14.6-22,14.6-35.4c0-5.5-4.5-10-10-10h-60
			c-5.5,0-10,4.5-10,10v40v50.1h20V106z M266,66h38.3c-1.5,4.2-3.9,8-7.1,11.2C291.5,82.9,284,86,276,86h-10V66z"/>
		<path class="st1" d="M83,126h10c13.4,0,25.9-5.2,35.4-14.6c9.4-9.4,14.6-22,14.6-35.4c0-5.5-4.5-10-10-10H73c-5.5,0-10,4.5-10,10
			v40v52.7l20-5.3V126z M83,86h38.3c-1.5,4.2-3.9,8-7.1,11.2c-5.7,5.7-13.2,8.8-21.2,8.8H83V86z"/>
	</g>
</g>
</svg>
