<?xml version="1.0" encoding="utf-8"?>
<!-- Generator: Adobe Illustrator 22.0.1, SVG Export Plug-In . SVG Version: 6.00 Build 0)  -->
<svg version="1.1" id="Слой_1" xmlns="http://www.w3.org/2000/svg" xmlns:xlink="http://www.w3.org/1999/xlink" x="0px" y="0px"
	 viewBox="0 0 119 117" style="enable-background:new 0 0 119 117;" xml:space="preserve">
<style type="text/css">
	.st0{fill:#FFFFFF;}
</style>
<g>
	<path class="st0" d="M79.9,40.4c0.5,0.6,0.6,1.2,0.3,1.8L57.5,90.8c-0.4,0.7-1,1-1.8,1c-0.1,0-0.3,0-0.6-0.1
		c-0.5-0.1-0.8-0.4-1.1-0.8c-0.2-0.4-0.3-0.8-0.2-1.3l8.3-33.9l-17,4.2c-0.1,0-0.3,0-0.5,0c-0.5,0-0.9-0.2-1.3-0.5
		c-0.5-0.4-0.7-1-0.5-1.6l8.4-34.6c0.1-0.4,0.3-0.7,0.7-1c0.3-0.3,0.7-0.4,1.2-0.4h13.8c0.5,0,1,0.2,1.3,0.5
		c0.4,0.4,0.5,0.8,0.5,1.2c0,0.2-0.1,0.5-0.2,0.8L61.3,44L78,39.8c0.2-0.1,0.4-0.1,0.5-0.1C79,39.8,79.5,40,79.9,40.4z"/>
</g>
<g>
	<path class="st0" d="M59,2c31.2,0,56.5,25.3,56.5,56.5S90.2,115,59,115S2.5,89.7,2.5,58.5S27.8,2,59,2 M59,0
		C26.7,0,0.5,26.2,0.5,58.5S26.7,117,59,117s58.5-26.2,58.5-58.5S91.3,0,59,0L59,0z"/>
</g>
</svg>
