<?xml version="1.0" encoding="utf-8"?>
<!-- Generator: Adobe Illustrator 22.0.1, SVG Export Plug-In . SVG Version: 6.00 Build 0)  -->
<svg version="1.1" id="Слой_3" xmlns="http://www.w3.org/2000/svg" xmlns:xlink="http://www.w3.org/1999/xlink" x="0px" y="0px"
	 viewBox="0 0 477.5 477.5" style="enable-background:new 0 0 477.5 477.5;" xml:space="preserve">
<style type="text/css">
	.st0{fill:#333333;}
	.st1{fill:#E3000F;}
</style>
<g>
	<g>
		<g>
			<path class="st0" d="M472.2,121L243.4,1.1c-2.9-1.5-6.3-1.5-9.2,0L5.3,121c-4.1,2.1-6.1,6.8-5.1,11.2c1.1,4.5,5.1,7.6,9.7,7.6
				h9.9v249.7c0,5.5,4.4,10,9.9,10h59.7c5.5,0,9.9-4.5,9.9-10V159.8H378v229.7c0,5.5,4.4,10,9.9,10h59.7c5.5,0,9.9-4.5,9.9-10V139.8
				h9.9c4.6,0,8.6-3.1,9.7-7.6C478.3,127.7,476.2,123.1,472.2,121z M437.7,129.8v249.7h-39.8V149.8c0-5.5-4.4-10-9.9-10H89.5
				c-5.5,0-9.9,4.5-9.9,10v229.7H39.8V129.8c0-1.4-0.3-2.7-0.8-3.9L238.7,21.2l199.8,104.6C438,127.1,437.7,128.4,437.7,129.8z"/>
			<path class="st1" d="M376.3,277.3h-128c-5.9,0-10.7,4.8-10.7,10.7v10.7h-96c-5.9,0-10.7,4.8-10.7,10.7V416
				c0,5.9,4.8,10.7,10.7,10.7h234.7c5.9,0,10.7-4.8,10.7-10.7V288C387,282.1,382.2,277.3,376.3,277.3z M237.7,405.3h-85.3V320h32
				v21.3c0,5.9,4.8,10.7,10.7,10.7s10.7-4.8,10.7-10.7V320h32L237.7,405.3L237.7,405.3z M365.7,405.3H259v-96v-10.7h42.7v32
				c0,5.9,4.8,10.7,10.7,10.7s10.7-4.8,10.7-10.7v-32h42.7L365.7,405.3L365.7,405.3z"/>
		</g>
	</g>
</g>
</svg>
