<?xml version="1.0" encoding="utf-8"?>
<!-- Generator: Adobe Illustrator 22.0.1, SVG Export Plug-In . SVG Version: 6.00 Build 0)  -->
<svg version="1.1" id="Слой_6" xmlns="http://www.w3.org/2000/svg" xmlns:xlink="http://www.w3.org/1999/xlink" x="0px" y="0px"
	 viewBox="0 0 477.5 477.5" style="enable-background:new 0 0 477.5 477.5;" xml:space="preserve">
<style type="text/css">
	.st0{fill:#333333;}
	.st1{fill:#E3000F;}
</style>
<g>
	<g>
		<path class="st0" d="M239.6,32.2c5.8,6,14,12.8,25.7,19.5c31.2,17.8,74.7,27.4,129.4,28.7v222c0,41.5-40.9,80.1-75.3,105.1
			c-33.1,24.1-67,40.9-79.7,46.9c-13.1-6.1-46.7-22.8-79.7-46.9c-34.3-25.1-75.3-63.6-75.3-105.1v-222c54.5-1.3,97.9-11,129.1-28.8
			C225.1,45.3,233.5,38.4,239.6,32.2 M239.7,3.4c0,0-0.1,0-0.1,0c-2.7,0-5.3,1.7-6.4,4.2c-0.2,0.6-24,53-161.6,53
			c-3.8,0-6.9,3.1-6.9,6.9v234.9c0,96.2,165.2,169.7,172.2,172.7c0.9,0.4,1.8,0.6,2.8,0.6c0.9,0,1.9-0.1,2.8-0.6
			c7-3.1,172.2-76.6,172.2-172.7V67.5c0-3.8-3.1-6.9-6.9-6.9c-138.1,0-161.5-52.4-161.7-52.9C245.1,5.1,242.6,3.4,239.7,3.4
			L239.7,3.4z"/>
	</g>
</g>
<g>
	<path class="st1" d="M228,344.1c-5.2,0-10.5-0.3-16-1c-5.5-0.7-10.7-1.5-15.6-2.6s-9.4-2.2-13.4-3.5c-4-1.3-7.1-2.5-9.2-3.6
		l6.9-29.8c4,1.9,9.9,4.1,17.6,6.5c7.7,2.4,17.2,3.6,28.6,3.6c15.2,0,26.2-2.9,32.9-8.8c6.7-5.9,10.1-13.7,10.1-23.5
		c0-6.4-1.3-11.7-3.9-15.9c-2.6-4.2-6.2-7.7-10.7-10.3c-4.5-2.6-9.7-4.4-15.6-5.5c-5.9-1.1-12.1-1.6-18.6-1.6h-11.8v-28.3h14.4
		c4.4,0,8.9-0.4,13.4-1.3c4.5-0.9,8.6-2.4,12.3-4.6c3.7-2.2,6.6-5.2,9-8.8c2.3-3.7,3.5-8.4,3.5-14.2c0-4.6-0.9-8.6-2.6-11.8
		c-1.7-3.3-4-6-6.8-8.1c-2.8-2.1-6-3.7-9.7-4.6c-3.7-1-7.5-1.4-11.6-1.4c-8.7,0-16.4,1.3-23.1,3.9c-6.7,2.6-12.7,5.5-17.9,8.8
		l-12.7-26c2.7-1.7,6-3.6,9.8-5.5c3.9-1.9,8.1-3.8,12.9-5.5c4.7-1.7,9.8-3.1,15.2-4.2c5.4-1.1,11.1-1.6,17-1.6
		c11.2,0,20.8,1.3,28.9,4c8.1,2.7,14.8,6.5,20.1,11.4c5.3,4.9,9.2,10.7,11.8,17.3c2.6,6.6,3.9,13.9,3.9,21.8
		c0,9.2-2.6,17.5-7.7,24.8c-5.1,7.3-11.7,12.9-19.8,16.8c10.4,3.7,19,9.7,25.9,18.2c6.8,8.5,10.3,19.4,10.3,32.6
		c0,8.9-1.5,17.1-4.6,24.7c-3.1,7.6-7.8,14.2-14.2,19.6c-6.4,5.5-14.4,9.8-24.1,13C253.1,342.5,241.5,344.1,228,344.1z"/>
</g>
</svg>
