<?xml version="1.0" encoding="utf-8"?>
<!-- Generator: Adobe Illustrator 22.0.1, SVG Export Plug-In . SVG Version: 6.00 Build 0)  -->
<svg version="1.1" id="Слой_2" xmlns="http://www.w3.org/2000/svg" xmlns:xlink="http://www.w3.org/1999/xlink" x="0px" y="0px"
	 viewBox="0 0 477.5 477.5" style="enable-background:new 0 0 477.5 477.5;" xml:space="preserve">
<style type="text/css">
	.st0{display:none;}
	.st1{display:inline;fill:#333333;}
	.st2{fill:#E3000F;}
</style>
<g>
	<g>
		<g class="st0">
			<path class="st1" d="M47.1,281.6c0,0,4.6-18.8-11-35.2C20.4,230.1,0.7,230,0.7,230s-4.9,22.1,10.4,38.1
				C26.4,284,47.1,281.6,47.1,281.6z"/>
			<path class="st1" d="M81.7,278.2c0,0,18.3-9.9,21.7-31.8c3.4-21.8-13.4-37.1-13.4-37.1s-16,11.4-19.5,33.8
				C67.1,265.5,81.7,278.2,81.7,278.2z"/>
			<path class="st1" d="M109.2,333.1c0,0,16.9-12.3,17.4-34.3c0.4-22-18.1-35-18.1-35s-14.4,13.4-14.9,36
				C93.1,322.4,109.2,333.1,109.2,333.1z"/>
			<path class="st1" d="M164.5,329c-1.6-22-21.3-33.2-21.3-33.2s-13.1,14.7-11.5,37.3c1.6,22.6,18.7,31.7,18.7,31.7
				S166.1,351,164.5,329z"/>
			<path class="st1" d="M202.3,392.2c0,0,11-17.7,3.2-38.3c-7.9-20.6-30-25.7-30-25.7s-8.3,17.9-0.3,39
				C183.2,388.4,202.3,392.2,202.3,392.2z"/>
			<path class="st1" d="M54.7,233.3c0,0,14.3-13.1,10.4-35.3c-4-22.3-20.3-33.3-20.3-33.3s-16.4,15.7-12.5,37.4
				C36.2,223.8,54.7,233.3,54.7,233.3z"/>
			<path class="st1" d="M66,324.3c0,0-1.1-19.4-20.9-30.4c-19.8-11-38.6-5.3-38.6-5.3s1.8,22.6,21.1,33.3
				C46.9,332.7,66,324.3,66,324.3z"/>
			<path class="st1" d="M99.3,361.9c0,0-5.4-18.6-27.1-25c-21.7-6.3-38.9,3.4-38.9,3.4s6.8,21.6,28,27.8
				C82.6,374.4,99.3,361.9,99.3,361.9z"/>
			<path class="st1" d="M136.6,388.7c0,0-10.8-16.1-33.4-15.6c-22.6,0.5-36,15-36,15s13.1,18.6,35.1,18
				C124.4,405.7,136.6,388.7,136.6,388.7z"/>
			<path class="st1" d="M152.6,399.6c-22.4,3.3-33.9,19.2-33.9,19.2s15.2,16.9,37,13.7c21.8-3.2,31.9-21.4,31.9-21.4
				S174.9,396.4,152.6,399.6z"/>
			<path class="st1" d="M62.1,244.4L51.3,244c0,1.2-2.7,118.2,173.8,170.9l3.1-10.3C60.1,354.3,61.9,248.9,62.1,244.4z"/>
			<path class="st1" d="M430.4,281.9c0,0,20.7,2.4,36-13.5c15.3-15.9,10.4-38.1,10.4-38.1s-19.7,0.1-35.4,16.4
				C425.7,263.1,430.4,281.9,430.4,281.9z"/>
			<path class="st1" d="M374.1,246.7c3.4,21.8,21.7,31.8,21.7,31.8s14.6-12.7,11.2-35.1c-3.5-22.4-19.5-33.8-19.5-33.8
				S370.8,224.9,374.1,246.7z"/>
			<path class="st1" d="M369,264c0,0-18.6,13-18.2,35c0.5,22,17.4,34.3,17.4,34.3s16.2-10.7,15.7-33.3C383.4,277.5,369,264,369,264z
				"/>
			<path class="st1" d="M313,329.3c-1.6,22,14.1,35.8,14.1,35.8s17.1-9.1,18.7-31.7c1.6-22.6-11.5-37.3-11.5-37.3
				S314.6,307.3,313,329.3z"/>
			<path class="st1" d="M272,354.2c-7.9,20.6,3.2,38.3,3.2,38.3s19-3.8,27.1-25c8.1-21.2-0.3-39-0.3-39S279.9,333.6,272,354.2z"/>
			<path class="st1" d="M422.8,233.7c0,0,18.5-9.5,22.4-31.2c3.9-21.7-12.5-37.4-12.5-37.4s-16.3,11-20.3,33.3
				C408.4,220.6,422.8,233.7,422.8,233.7z"/>
			<path class="st1" d="M432.3,294.3c-19.8,11-20.9,30.4-20.9,30.4s19.1,8.4,38.4-2.3C469.1,311.6,471,289,471,289
				S452.1,283.3,432.3,294.3z"/>
			<path class="st1" d="M405.2,337.3c-21.7,6.3-27.1,25-27.1,25s16.8,12.4,37.9,6.3c21.2-6.2,28-27.8,28-27.8
				S426.9,330.9,405.2,337.3z"/>
			<path class="st1" d="M374.2,373.4c-22.6-0.5-33.4,15.6-33.4,15.6s12.2,16.9,34.3,17.4c22,0.5,35.1-18,35.1-18
				S396.9,374,374.2,373.4z"/>
			<path class="st1" d="M324.9,399.9c-22.4-3.2-35,11.5-35,11.5s10.1,18.3,31.9,21.4c21.8,3.2,37-13.7,37-13.7
				S347.3,403.2,324.9,399.9z"/>
			<path class="st1" d="M426.2,244.3l-10.8,0.4c0.2,4.5,2,109.9-166.1,160.1l3.1,10.3C428.9,362.4,426.2,245.5,426.2,244.3z"/>
		</g>
		<polygon class="st2" points="385.2,457 364.4,289.9 477.5,176.2 315.5,154.8 242.1,14.1 242.1,13.4 168.5,154.3 6.5,175.7 
			119.6,289.4 98.8,456.5 241.9,379.5 241.9,380 		"/>
	</g>
</g>
</svg>
