<?xml version="1.0" encoding="utf-8"?>
<!-- Generator: Adobe Illustrator 22.0.1, SVG Export Plug-In . SVG Version: 6.00 Build 0)  -->
<svg version="1.1" id="Слой_8" xmlns="http://www.w3.org/2000/svg" xmlns:xlink="http://www.w3.org/1999/xlink" x="0px" y="0px"
	 viewBox="0 0 477.5 477.5" style="enable-background:new 0 0 477.5 477.5;" xml:space="preserve">
<style type="text/css">
	.st0{fill:#333333;}
	.st1{fill:#666666;}
	.st2{fill:#E3000F;}
</style>
<g transform="translate(1 1)">
	<g>
		<g>
			<path class="st0" d="M174.3,342c-8.7,0-15.9,7.1-15.9,15.9c0,8.7,7.1,15.9,15.9,15.9s15.9-7.1,15.9-15.9
				C190.2,349.1,183.1,342,174.3,342z"/>
			<path class="st0" d="M380.4,342c-8.7,0-15.9,7.1-15.9,15.9c0,8.7,7.1,15.9,15.9,15.9s15.9-7.1,15.9-15.9
				C396.3,349.1,389.1,342,380.4,342z"/>
			<path class="st1" d="M356.6,286.5h-15.9c-4.8,0-7.9,3.2-7.9,7.9c0,4.8,3.2,7.9,7.9,7.9h15.9c4.8,0,7.9-3.2,7.9-7.9
				C364.5,289.7,361.4,286.5,356.6,286.5z"/>
			<path class="st0" d="M237.7,207.3h-111c-4.8,0-7.9,3.2-7.9,7.9c0,4.8,3.2,7.9,7.9,7.9h111c4.8,0,7.9-3.2,7.9-7.9
				C245.7,210.4,242.5,207.3,237.7,207.3z"/>
			<path class="st0" d="M253.6,159.7h-92.2c-4.8,7.4-5.3,9.3-13,15.8h105.3c4.8,0,7.9-3.2,7.9-7.9S258.4,159.7,253.6,159.7z"/>
			<path class="st1" d="M162.9,159.7"/>
			<path class="st0" d="M79.2,199.9c0,46.8,0,103.2,0,150c0,8.7,7.1,15.9,15.9,15.9h32.4c3.8,22.4,23.4,39.6,46.9,39.6
				s43.1-17.2,46.9-39.6h112.3c3.8,22.4,23.4,39.6,46.9,39.6c23.5,0,43.1-17.2,46.9-39.6h32.4c8.7,0,15.9-7.1,15.9-15.9v-65
				c0-7.1-4-12.7-10.3-15.1l-30.9-12.7L414.5,178c-2.4-11.1-11.9-18.2-23-18.2H317V136c0-8.7-7.1-15.9-15.9-15.9H175.1
				c-0.6,7.8-0.9,7.8-2.8,15.9h128.9v39.6c0,39.6-31.7,71.3-71.3,71.3H95.1c0-12.4,0-34.3,0-46.7C89.6,200.8,85.1,201,79.2,199.9z
				 M174.3,389.5c-17.4,0-31.7-14.3-31.7-31.7s14.3-31.7,31.7-31.7s31.7,14.3,31.7,31.7C206.1,375.3,191.8,389.5,174.3,389.5z
				 M380.4,389.5c-17.4,0-31.7-14.3-31.7-31.7s14.3-31.7,31.7-31.7c17.4,0,31.7,14.3,31.7,31.7S397.8,389.5,380.4,389.5z
				 M459.7,349.9h-32.4c-2.7-15.8-13.2-29-27.3-35.4c-0.3-0.1-0.6-0.3-0.9-0.4c-0.2-0.1-0.4-0.2-0.6-0.2c-0.5-0.2-1-0.4-1.6-0.6
				c-0.1-0.1-0.3-0.1-0.4-0.2c-0.6-0.2-1.2-0.4-1.8-0.6c-0.1,0-0.3-0.1-0.4-0.1c-0.6-0.2-1.2-0.4-1.8-0.5c-0.1,0-0.3-0.1-0.4-0.1
				c-0.6-0.2-1.2-0.3-1.8-0.4c-0.2,0-0.3-0.1-0.5-0.1c-0.6-0.1-1.2-0.2-1.8-0.3c-0.2,0-0.4-0.1-0.5-0.1c-0.6-0.1-1.2-0.2-1.7-0.2
				c-0.2,0-0.4,0-0.6-0.1c-0.6-0.1-1.2-0.1-1.8-0.1c-0.2,0-0.4,0-0.6,0c-0.8,0-1.6-0.1-2.3-0.1c-0.8,0-1.6,0-2.3,0.1
				c-0.2,0-0.4,0-0.6,0c-0.6,0-1.2,0.1-1.8,0.1c-0.2,0-0.4,0-0.6,0.1c-0.6,0.1-1.2,0.1-1.7,0.2c-0.2,0-0.4,0.1-0.5,0.1
				c-0.6,0.1-1.2,0.2-1.8,0.3c-0.2,0-0.3,0.1-0.5,0.1c-0.6,0.1-1.2,0.3-1.8,0.4c-0.1,0-0.3,0.1-0.4,0.1c-0.6,0.2-1.2,0.3-1.8,0.5
				c-0.1,0-0.3,0.1-0.4,0.1c-0.6,0.2-1.2,0.4-1.8,0.6c-0.1,0.1-0.3,0.1-0.4,0.2c-0.5,0.2-1,0.4-1.6,0.6c-0.2,0.1-0.4,0.2-0.6,0.2
				c-0.3,0.1-0.6,0.3-0.9,0.4c-14.2,6.4-24.7,19.6-27.3,35.4H221.2c-2.7-15.8-13.2-29-27.3-35.4c-0.3-0.1-0.6-0.3-0.9-0.4
				c-0.2-0.1-0.4-0.2-0.6-0.2c-0.5-0.2-1-0.4-1.6-0.6c-0.1-0.1-0.3-0.1-0.4-0.2c-0.6-0.2-1.2-0.4-1.8-0.6c-0.1,0-0.3-0.1-0.4-0.1
				c-0.6-0.2-1.2-0.4-1.8-0.5c-0.1,0-0.3-0.1-0.4-0.1c-0.6-0.2-1.2-0.3-1.8-0.4c-0.2,0-0.3-0.1-0.5-0.1c-0.6-0.1-1.2-0.2-1.8-0.3
				c-0.2,0-0.4-0.1-0.5-0.1c-0.6-0.1-1.2-0.2-1.7-0.2c-0.2,0-0.4,0-0.6-0.1c-0.6-0.1-1.2-0.1-1.8-0.1c-0.2,0-0.4,0-0.6,0
				c-0.8,0-1.6-0.1-2.3-0.1c-0.8,0-1.6,0-2.3,0.1c-0.2,0-0.4,0-0.6,0c-0.6,0-1.2,0.1-1.8,0.1c-0.2,0-0.4,0-0.6,0.1
				c-0.6,0.1-1.2,0.1-1.7,0.2c-0.2,0-0.4,0.1-0.5,0.1c-0.6,0.1-1.2,0.2-1.8,0.3c-0.2,0-0.3,0.1-0.5,0.1c-0.6,0.1-1.2,0.3-1.8,0.4
				c-0.1,0-0.3,0.1-0.4,0.1c-0.6,0.2-1.2,0.3-1.8,0.5c-0.1,0-0.3,0.1-0.4,0.1c-0.6,0.2-1.2,0.4-1.8,0.6c-0.1,0.1-0.3,0.1-0.4,0.2
				c-0.5,0.2-1,0.4-1.6,0.6c-0.2,0.1-0.4,0.2-0.6,0.2c-0.3,0.1-0.6,0.3-0.9,0.4c-14.2,6.4-24.7,19.6-27.3,35.4H95.1v-87.2h134.7
				c48.3,0,87.2-38.8,87.2-87.2h74.5c4,0,7.1,3.2,7.9,6.3l18.1,72.9H359c-5.5,0-10.3-4.8-10.3-10.3v-37.2c0-4.8-3.2-7.9-7.9-7.9
				c-4.8,0-7.9,3.2-7.9,7.9v37.2c0,14.3,11.9,26.2,26.2,26.2h65.8l34.9,13.5V349.9z"/>
			<path class="st1" d="M177.1,120.1"/>
		</g>
	</g>
</g>
<g>
	<path class="st2" d="M161.5,160.7c0.9-1.4,1.8-2.9,2.7-4.5c2.5-4.3,4.3-8.5,5.8-12.4c0,0,5.4-14.7,5.4-30.7
		C175.2,89.9,149,26,88.2,26C34.1,26,1,76.5,1,113.2c0,16,4.4,28.3,6.6,33.4c13.1,30.9,44,50,72.7,53.4c6.7,0.8,12.3,0.6,15.9,0.4
		c1.7-0.1,9.6-0.9,19.8-4.5c18-6.3,29.3-16.6,32.3-19.3C154,171.1,158.3,165.5,161.5,160.7z M158.4,126c-0.2,0.5-0.3,1-0.4,1.5
		c-1.7,8.9-5,17.1-9.7,24.4c-0.3,0.4-0.5,0.8-0.8,1.2c-0.1,0.2-0.3,0.4-0.4,0.6c-0.5,0.7-1,1.5-1.5,2.2c-0.1,0.1-0.2,0.3-0.3,0.4
		c-0.6,0.8-1.2,1.5-1.8,2.3c-0.1,0.1-0.2,0.2-0.3,0.4c-0.6,0.7-1.3,1.5-1.9,2.2c-0.1,0.1-0.2,0.2-0.3,0.3l-4.4,4.4
		c-0.1,0.1-0.2,0.2-0.3,0.3c-0.8,0.7-1.5,1.4-2.3,2c-0.1,0.1-0.1,0.1-0.2,0.2c-0.8,0.7-1.7,1.4-2.6,2c-0.3,0.2-0.6,0.4-0.9,0.7
		c-0.5,0.4-1.1,0.8-1.6,1.1c-0.5,0.4-1.1,0.7-1.6,1.1c-0.3,0.2-0.7,0.4-1,0.6c-0.6,0.4-1.2,0.8-1.9,1.1c-0.3,0.1-0.5,0.3-0.8,0.4
		c-0.7,0.4-1.4,0.8-2.1,1.1c-0.2,0.1-0.4,0.2-0.6,0.3c-0.8,0.4-1.6,0.8-2.3,1.1c-0.1,0-0.2,0.1-0.2,0.1c-4.4,2-9,3.6-13.8,4.6
		c-0.3,0.1-0.5,0.1-0.8,0.2c-0.7,0.2-1.4,0.3-2.2,0.4c-0.4,0.1-0.8,0.1-1.2,0.2c-0.6,0.1-1.3,0.2-1.9,0.3c-0.5,0.1-1,0.1-1.6,0.2
		c-0.6,0.1-1.1,0.1-1.7,0.2c-0.7,0.1-1.3,0.1-2,0.2c-0.4,0-0.9,0.1-1.3,0.1c-1.1,0.1-2.3,0.1-3.4,0.1c-39.6,0-71.3-31.7-71.3-71.3
		c0-39.6,31.7-71.3,71.3-71.3c39.6,0,71.3,31.7,71.3,71.3C159.5,117.5,159.1,121.8,158.4,126z"/>
	<path class="st2" d="M131.8,74.3c-4-2.4-8.7-1.6-11.1,2.4l-42,63.4l-24.6-24.6c-3.2-3.2-7.9-3.2-11.1,0c-3.2,3.2-3.2,7.9,0,11.1
		l31.7,31.7c1.6,1.6,3.2,2.4,5.5,2.4c3.2,0,5.5-1.6,6.3-4l47.6-71.3C136.5,81.5,135.7,76.7,131.8,74.3z"/>
</g>
</svg>
