<?xml version="1.0" encoding="utf-8"?>
<!-- Generator: Adobe Illustrator 22.0.1, SVG Export Plug-In . SVG Version: 6.00 Build 0)  -->
<svg version="1.1" id="Capa_1" xmlns="http://www.w3.org/2000/svg" xmlns:xlink="http://www.w3.org/1999/xlink" x="0px" y="0px"
	 viewBox="0 0 80 80" style="enable-background:new 0 0 80 80;" xml:space="preserve">
<style type="text/css">
	.st0{stroke:#FFFFFF;stroke-miterlimit:10;}
</style>
<path class="st0" d="M17.2,8.3C17,8.1,16.8,8,16.5,8h-3.6c-0.6,0-1,0.5-1,1v58c0,0.6,0.4,1,1,1h58c0.6,0,1-0.5,1-1v-3.6
	c0-0.3-0.1-0.5-0.3-0.7 M69.9,66h-56V10h2.2l2.7,2.7l-0.7,0.7c-0.4,0.4-0.4,1,0,1.4c0.4,0.4,1,0.4,1.4,0l0.7-0.7l3.2,3.2l-0.7,0.7
	c-0.4,0.4-0.4,1,0,1.4c0.4,0.4,1,0.4,1.4,0l0.7-0.7l3.2,3.2l-0.7,0.7c-0.4,0.4-0.4,1,0,1.4c0.4,0.4,1,0.4,1.4,0l0.7-0.7l3.2,3.2
	L30.5,29c-0.4,0.4-0.4,1,0,1.4c0.4,0.4,1,0.4,1.4,0l2.3-2.3l3.2,3.2l-0.7,0.7c-0.4,0.4-0.4,1,0,1.4c0.4,0.4,1,0.4,1.4,0l0.7-0.7
	L42,36l-0.7,0.7c-0.4,0.4-0.4,1,0,1.4c0.4,0.4,1,0.4,1.4,0l0.7-0.7l3.2,3.2l-0.7,0.7c-0.4,0.4-0.4,1,0,1.4c0.4,0.4,1,0.4,1.4,0
	l0.7-0.7l3.2,3.2L49,47.5c-0.4,0.4-0.4,1,0,1.4c0.4,0.4,1,0.4,1.4,0l2.3-2.3l3.2,3.2l-0.7,0.7c-0.4,0.4-0.4,1,0,1.4
	c0.4,0.4,1,0.4,1.4,0l0.7-0.7l3.2,3.2l-0.7,0.7c-0.4,0.4-0.4,1,0,1.4c0.4,0.4,1,0.4,1.4,0L62,56l3.2,3.2l-0.7,0.7
	c-0.4,0.4-0.4,1,0,1.4c0.4,0.4,1,0.4,1.4,0l0.7-0.7l3.2,3.2L69.9,66L69.9,66z M26.4,32.9c-0.2-0.2-0.4-0.3-0.7-0.3h-1.3
	c-0.6,0-1,0.4-1,1v21.5c0,0.6,0.4,1,1,1h21.5c0.6,0,1-0.5,1-1v-1.3c0-0.3-0.1-0.5-0.3-0.7L26.4,32.9z M25.4,54.1V34.7l19.4,19.4
	H25.4z"/>
</svg>
