<?xml version="1.0" encoding="utf-8"?>
<!-- Generator: Adobe Illustrator 22.0.1, SVG Export Plug-In . SVG Version: 6.00 Build 0)  -->
<svg version="1.1" id="Capa_1" xmlns="http://www.w3.org/2000/svg" xmlns:xlink="http://www.w3.org/1999/xlink" x="0px" y="0px"
	 viewBox="0 0 80 80" style="enable-background:new 0 0 80 80;" xml:space="preserve">
<path d="M13,12.9c-1.6,2.3-1.1,5.5,1.2,7.2l14.7,10.4c2,1.4,4.5,1.2,6.3-0.3l3.6,2.5v11.5c0,0.3,0.1,0.6,0.4,0.9l2.5,2.3L27.1,55
	L70,68.5L53.5,41.1l-9.7,5.1l-2.7-2.5V32.1c0-0.4-0.2-0.7-0.5-1l-4-2.8c1.1-2.2,0.5-5-1.6-6.5L20.3,11.4c-2.3-1.6-5.5-1.1-7.2,1.2
	L13,12.9z"/>
</svg>
