<?xml version="1.0" encoding="utf-8"?>
<!-- Generator: Adobe Illustrator 22.0.1, SVG Export Plug-In . SVG Version: 6.00 Build 0)  -->
<svg version="1.1" id="Capa_1" xmlns="http://www.w3.org/2000/svg" xmlns:xlink="http://www.w3.org/1999/xlink" x="0px" y="0px"
	 viewBox="0 0 80 80" style="enable-background:new 0 0 80 80;" xml:space="preserve">
<g>
	<g>
		<path d="M60.4,44.4c-3.3,0-6,2.6-6,5.9c0,3.2,2.7,5.9,6,5.9c3.3,0,6-2.6,6-5.9S63.7,44.4,60.4,44.4z M60.4,53.8
			c-2,0-3.6-1.6-3.6-3.5c0-1.9,1.6-3.5,3.6-3.5c2,0,3.6,1.6,3.6,3.5C64,52.2,62.4,53.8,60.4,53.8z M74.8,44.4l-0.1-2.9
			c-0.1-1.9-1-3.6-2.6-4.6c-3.1-1.9-8.3-3-13.5-3.1c-6.9-8.2-17.6-11.4-31.9-9.4c0,0,0,0,0,0c-7.7,1.3-11.3,5.4-13.8,9.6L6,36.2
			c-0.5,0.2-0.8,0.6-0.8,1.1v7.1c-0.7,0-1.2,0.5-1.2,1.2v4.7c0,0.6,0.5,1.2,1.2,1.2H10c0.7,0,1.3-0.5,1.2-1.2c0-4.6,3.8-8.2,8.4-8.2
			c4.6,0,8.4,3.7,8.4,8.2c0,0,0,0,0,0c0,0.7,0.5,1.2,1.2,1.2h21.6c0.7,0,1.3-0.5,1.2-1.2c0-4.6,3.8-8.2,8.4-8.2
			c4.6,0,8.4,3.7,8.4,8.2c0,0,0,0,0,0c0,0.7,0.5,1.2,1.2,1.2h4.8c0.7,0,1.2-0.5,1.2-1.2v-4.7C76,44.9,75.5,44.4,74.8,44.4z
			 M20.2,33.8h-3.3c-0.5,0-0.8-0.6-0.5-1c1-1.3,2-2.4,3.3-3.3c0.4-0.3,1,0,1,0.5l0,3.2C20.8,33.5,20.5,33.8,20.2,33.8z M35.2,33.2
			c0,0.3-0.3,0.6-0.6,0.6H23.8c-0.3,0-0.6-0.3-0.6-0.6l0-5c0-0.2,0.1-0.5,0.4-0.6c1-0.4,2.2-0.7,3.5-0.9c2.7-0.4,5.2-0.5,7.6-0.5
			c0.3,0,0.6,0.3,0.6,0.6V33.2z M53.8,33.8H38.2c-0.3,0-0.6-0.3-0.6-0.6v-6.3c0-0.3,0.3-0.6,0.7-0.6c6.5,0.6,11.8,2.7,16,6.4
			C54.7,33.1,54.4,33.8,53.8,33.8z M19.6,44.4c-3.3,0-6,2.6-6,5.9c0,3.2,2.7,5.9,6,5.9c3.3,0,6-2.6,6-5.9S22.9,44.4,19.6,44.4z
			 M19.6,53.8c-2,0-3.6-1.6-3.6-3.5c0-1.9,1.6-3.5,3.6-3.5c2,0,3.6,1.6,3.6,3.5C23.2,52.2,21.6,53.8,19.6,53.8z"/>
	</g>
</g>
</svg>
