<?xml version="1.0" encoding="utf-8"?>
<!-- Generator: Adobe Illustrator 22.0.1, SVG Export Plug-In . SVG Version: 6.00 Build 0)  -->
<svg version="1.1" id="Capa_1" xmlns="http://www.w3.org/2000/svg" xmlns:xlink="http://www.w3.org/1999/xlink" x="0px" y="0px"
	 viewBox="0 0 80 80" style="enable-background:new 0 0 80 80;" xml:space="preserve">
<path d="M62.9,52.6c-0.1-0.4-1-1-2.5-1.7c-0.4-0.2-1-0.6-1.8-1c-0.8-0.4-1.5-0.8-2.1-1.2c-0.6-0.4-1.2-0.7-1.8-1
	c-0.1-0.1-0.4-0.3-0.8-0.6c-0.5-0.3-0.9-0.6-1.2-0.7c-0.3-0.2-0.6-0.2-0.9-0.2c-0.4,0-1,0.3-1.6,0.9c-0.7,0.6-1.3,1.3-1.8,2
	c-0.5,0.7-1.1,1.4-1.7,2c-0.6,0.6-1.1,0.9-1.5,0.9c-0.2,0-0.4-0.1-0.7-0.2s-0.5-0.2-0.7-0.3c-0.2-0.1-0.4-0.2-0.8-0.5
	c-0.4-0.2-0.6-0.4-0.6-0.4c-3-1.7-5.6-3.6-7.7-5.7c-2.2-2.2-4.1-4.7-5.7-7.7c0,0-0.1-0.3-0.4-0.6c-0.2-0.4-0.4-0.6-0.5-0.8
	c-0.1-0.2-0.2-0.4-0.3-0.7c-0.1-0.3-0.2-0.5-0.2-0.7c0-0.4,0.3-0.9,0.9-1.5c0.6-0.6,1.3-1.2,2-1.7c0.7-0.5,1.4-1.2,2-1.8
	c0.6-0.7,0.9-1.2,0.9-1.6c0-0.3-0.1-0.6-0.2-0.9c-0.2-0.3-0.4-0.7-0.7-1.2c-0.3-0.5-0.5-0.7-0.6-0.8c-0.3-0.5-0.7-1.1-1-1.8
	c-0.4-0.6-0.7-1.3-1.2-2.1c-0.4-0.8-0.7-1.4-1-1.8c-0.8-1.5-1.4-2.4-1.7-2.5c-0.2-0.1-0.4-0.1-0.7-0.1c-0.6,0-1.4,0.1-2.3,0.3
	c-1,0.2-1.7,0.5-2.3,0.7c-1.1,0.5-2.3,1.8-3.5,4c-1.1,2.1-1.7,4.1-1.7,6.1c0,0.6,0,1.2,0.1,1.7c0.1,0.6,0.2,1.2,0.4,1.9
	c0.2,0.7,0.4,1.2,0.5,1.5c0.1,0.3,0.3,0.9,0.7,1.8c0.3,0.9,0.5,1.4,0.6,1.6c0.8,2.2,1.7,4.1,2.7,5.8c1.7,2.8,4.1,5.7,7.1,8.7
	c3,3,5.9,5.4,8.7,7.1c1.7,1.1,3.6,2,5.8,2.7c0.2,0.1,0.7,0.3,1.6,0.6c0.9,0.3,1.5,0.6,1.8,0.7c0.3,0.1,0.9,0.3,1.5,0.5
	c0.7,0.2,1.3,0.3,1.9,0.4c0.6,0.1,1.2,0.1,1.7,0.1c2,0,4.1-0.6,6.1-1.7c2.2-1.2,3.6-2.4,4-3.5c0.2-0.5,0.5-1.3,0.7-2.3
	c0.2-1,0.3-1.7,0.3-2.3C63,52.9,63,52.7,62.9,52.6L62.9,52.6z"/>
</svg>
