<?xml version="1.0" encoding="utf-8"?>
<!-- Generator: Adobe Illustrator 22.0.1, SVG Export Plug-In . SVG Version: 6.00 Build 0)  -->
<svg version="1.1" id="Capa_1" xmlns="http://www.w3.org/2000/svg" xmlns:xlink="http://www.w3.org/1999/xlink" x="0px" y="0px"
	 viewBox="0 0 80 80" style="enable-background:new 0 0 80 80;" xml:space="preserve">
<style type="text/css">
	.st0{fill:#E3000F;stroke:#000000;stroke-miterlimit:10;}
	.st1{fill:#FFFFFF;}
</style>
<path class="st0" d="M40,70L40,70c-16.6,0-30-13.4-30-30v0c0-16.6,13.4-30,30-30h0c16.6,0,30,13.4,30,30v0C70,56.6,56.6,70,40,70z"
	/>
<g>
	<g id="Layer_2_17_">
		<g>
			<path class="st1" d="M43.9,58.3c-0.4,0.1-0.7,0.2-1.1,0.3c-1,0.2-1.6,1.2-1.4,2.1c0,0.1,0,0.1,0,0.2c0.3,0.9,1.2,1.4,2.1,1.3
				c0.4-0.1,0.9-0.2,1.3-0.3c1-0.3,1.5-1.3,1.3-2.2C45.8,58.6,44.8,58,43.9,58.3z"/>
			<path class="st1" d="M31.2,57.3c-0.4-0.2-0.7-0.3-1-0.5c-0.9-0.5-2-0.1-2.4,0.8c-0.2,0.4-0.3,0.9-0.1,1.4
				c0.1,0.5,0.4,0.8,0.9,1.1c0.4,0.2,0.8,0.4,1.2,0.6c0.9,0.4,2,0,2.4-0.9C32.6,58.8,32.1,57.7,31.2,57.3z"/>
			<path class="st1" d="M37.5,58.9c-0.4,0-0.8-0.1-1.1-0.1c-1-0.1-1.9,0.5-2,1.5c0,0.3,0,0.5,0.1,0.8c0.2,0.7,0.8,1.2,1.5,1.3
				c0.5,0.1,0.9,0.1,1.4,0.2c1,0.1,1.9-0.7,2-1.7C39.2,59.8,38.5,59,37.5,58.9z"/>
			<path class="st1" d="M49.7,55.6c-0.3,0.2-0.6,0.4-1,0.6c-0.7,0.4-1,1.3-0.8,2.1c0,0.1,0.1,0.3,0.2,0.4c0.5,0.9,1.6,1.1,2.5,0.6
				c0.4-0.2,0.8-0.5,1.2-0.7c0.8-0.6,1-1.7,0.5-2.5C51.7,55.2,50.5,55,49.7,55.6z"/>
			<path class="st1" d="M56.8,50.7c-0.8-0.6-1.9-0.4-2.5,0.4c-0.2,0.3-0.5,0.6-0.7,0.9c-0.4,0.5-0.5,1.1-0.3,1.7
				c0.1,0.3,0.3,0.6,0.6,0.9c0.8,0.6,1.9,0.5,2.6-0.3c0.3-0.4,0.6-0.7,0.8-1.1C57.8,52.4,57.6,51.3,56.8,50.7z"/>
			<path class="st1" d="M59.4,44.1c-1-0.3-2,0.3-2.2,1.2c-0.1,0.4-0.2,0.7-0.4,1.1c-0.1,0.4-0.1,0.8,0,1.1c0.2,0.5,0.6,1,1.1,1.2
				c0.9,0.3,2-0.2,2.3-1.1c0.2-0.4,0.3-0.9,0.4-1.3C60.9,45.4,60.3,44.4,59.4,44.1z"/>
			<path class="st1" d="M62.8,32.3L60.4,33c-1.8-5.5-5.6-10.1-10.8-12.9c-0.5-0.3-1-0.5-1.6-0.8c0,0,0,0,0,0c0,0,0,0-0.1,0
				c-4.7-2.1-9.9-2.4-14.9-1.1c0,0-0.1,0-0.1,0c-0.2,0-0.3,0.1-0.5,0.1c-0.3,0.1-0.5,0.2-0.8,0.3c0,0-0.1,0-0.1,0
				c-4.4,1.5-8.2,4.4-10.9,8.2c0,0,0,0,0,0c-0.3,0.4-0.5,0.8-0.8,1.1c0,0,0,0.1,0,0.1c-0.2,0.4-0.5,0.8-0.7,1.2
				c-2.2,4.2-3.1,8.8-2.5,13.4c0,0,0,0,0,0c0,0,0,0,0,0c0.2,1.2,0.4,2.5,0.8,3.7c1,3.2,2.6,6,4.8,8.5c0.7,0.7,1.8,0.8,2.6,0.1
				c0.7-0.7,0.8-1.8,0.1-2.6c-1.1-1.2-2-2.6-2.8-4c0,0,0,0,0-0.1c-0.2-0.3-0.3-0.7-0.5-1c0,0,0,0,0,0c-0.3-0.6-0.5-1.3-0.7-2
				c-2.4-7.9,0.7-16.1,6.9-20.7c0.1-0.1,0.2-0.1,0.3-0.2c1.6-1.1,3.4-2,5.4-2.6c2-0.6,4-0.9,6-0.8c0,0,0.1,0,0.1,0
				c0.1,0,0.2,0,0.4,0c0,0,0.1,0,0.1,0c6.2,0.4,11.9,3.8,15.1,9.2c0,0,0,0,0,0c0,0.1,0.1,0.2,0.1,0.2c0,0,0,0,0,0
				c0.6,1.1,1.1,2.2,1.5,3.4l-2.4,0.7c-0.7,0.2-0.7,0.7-0.1,1.1l5.2,3.4c0.6,0.4,1.3,0.2,1.5-0.5l2.4-5.7
				C63.8,32.4,63.4,32.1,62.8,32.3z"/>
			<path class="st1" d="M32.3,40c-1.7,1.3-2.9,2.4-3.6,3.4c-0.6,1-1,2-1.1,3h10.9v-3h-5.7c0.3-0.3,0.6-0.6,0.9-0.8
				c0.2-0.2,0.7-0.6,1.5-1.1c1.2-0.9,2.1-1.7,2.6-2.4c0.5-0.7,0.7-1.5,0.7-2.3c0-0.8-0.2-1.4-0.6-2c-0.4-0.6-1-1.1-1.7-1.3
				c-0.7-0.3-1.7-0.4-3-0.4c-1.2,0-2.2,0.2-2.9,0.5c-0.7,0.3-1.2,0.7-1.6,1.3c-0.4,0.6-0.6,1.4-0.8,2.4l3.6,0.3
				c0.1-0.7,0.3-1.3,0.6-1.5c0.3-0.3,0.7-0.4,1.1-0.4c0.4,0,0.8,0.1,1.1,0.4c0.3,0.3,0.4,0.6,0.4,1c0,0.4-0.1,0.8-0.4,1.2
				C34,38.7,33.4,39.3,32.3,40z"/>
			<path class="st1" d="M49.5,46.5V44h1.6v-2.8h-1.6v-8.1h-3.2L39.7,41v3h6.6v2.5H49.5L49.5,46.5z M42.8,41.2l3.5-4.1v4.1H42.8z"/>
		</g>
	</g>
</g>
</svg>
